<svg width="100" height="100" viewBox="0 0 100 100" fill="none" xmlns="http://www.w3.org/2000/svg">
<path d="M100 48.2076V51.4974C99.9687 51.6758 99.9292 51.851 99.9086 52.0287C99.7383 53.4597 99.628 54.8998 99.3926 56.3202C98.6239 60.9367 96.9621 65.2274 94.493 69.1949C90.7432 75.2185 85.6741 79.8119 79.3037 82.9488C75.627 84.7678 71.6628 85.9368 67.5868 86.4039C66.6815 86.5084 65.777 86.6021 64.8716 86.7016H29.7407C29.5638 86.6687 29.3877 86.6161 29.2091 86.6054C25.6667 86.3825 22.2584 85.5757 19.0099 84.1553C11.9374 81.0629 6.6642 76.0509 3.21235 69.1521C1.68703 66.1092 0.699916 62.8255 0.29465 59.4464C0.195062 58.6247 0.0979424 57.8039 0 56.9831V53.7912C0.0337449 53.6144 0.0855967 53.4375 0.0962963 53.2599C0.279835 50.193 0.909465 47.2149 2.01811 44.3527C5.00165 36.6513 10.2025 30.9393 17.5934 27.2424C21.428 25.3236 25.5152 24.3153 29.7901 24.0916C31.8831 23.983 33.9745 24.0998 36.0551 24.3786C36.2436 24.4041 36.5152 24.3202 36.6461 24.1862C39.6379 21.1324 43.0444 18.6519 46.8856 16.7718C50.6115 14.9484 54.5325 13.7731 58.6601 13.3027C59.6313 13.1916 60.6049 13.1003 61.5778 13H64.5728C64.7687 13.0304 64.9654 13.065 65.1613 13.088C66.6453 13.2607 68.1375 13.3693 69.6074 13.6152C74.1934 14.3842 78.4626 16.0291 82.4132 18.4726C88.4708 22.2197 93.0872 27.2918 96.2411 33.6773C98.0652 37.3531 99.2362 41.3176 99.7021 45.3939C99.8091 46.3324 99.9004 47.2708 100 48.2076ZM44.0864 26.92C44.1465 26.999 44.1613 27.036 44.1868 27.0483C46.2436 28.0614 48.2094 29.2493 50.0625 30.5988C50.1794 30.6836 50.4691 30.6482 50.6107 30.5594C55.7037 27.3345 61.2247 26.2217 67.1556 27.2728C72.9671 28.3026 77.6963 31.2042 81.3095 35.8387C85.4008 41.0835 86.9605 47.0142 85.8313 53.6127C85.0741 58.035 83.3012 62.0026 80.2881 65.3261C74.7901 71.3851 67.9053 73.8911 59.8008 72.8301C54.8115 72.1771 50.5045 70.0264 46.9399 66.4265C42.3646 61.8085 37.7597 57.2208 33.1712 52.6151C32.5597 52.0015 31.879 51.5081 30.9984 51.4003C29.4601 51.212 28.0642 51.9793 27.4 53.3602C26.8074 54.5931 26.884 55.983 28.1695 57.2463C33.2848 62.2641 38.3547 67.3279 43.4642 72.3507C44.3387 73.2147 45.2766 74.0122 46.27 74.7366C50.0025 77.4449 54.2107 78.9426 58.7679 79.5455C62.3449 80.0175 65.8938 79.9164 69.4156 79.1252C76.1333 77.6176 81.6979 74.1913 86.0807 68.9046C89.6996 64.5357 91.8881 59.5155 92.651 53.8792C93.0932 50.6651 93.0008 47.4002 92.3778 44.2162C91.3613 39.0101 89.1572 34.3517 85.6255 30.3867C78.8872 22.8258 70.4099 19.4505 60.3218 20.2039C56.4412 20.4934 52.7704 21.6325 49.316 23.4394C47.452 24.4072 45.6985 25.5742 44.0864 26.92ZM41.6181 79.7017C41.4793 79.5732 41.341 79.4441 41.2033 79.3144C39.1119 77.3413 37.0091 75.3806 34.9424 73.382C34.5424 72.9955 34.1745 72.8071 33.6082 72.8203C31.5152 72.8713 29.4206 72.8803 27.358 72.4148C17.1029 70.0971 11.1481 58.9554 14.9276 49.1517C17.9086 41.4215 26.1613 36.7138 34.2996 38.1654C37.9473 38.816 41.149 40.3589 43.777 43.0672C46.9819 46.3735 50.2823 49.5852 53.5218 52.8577C54.2593 53.6028 55.1062 53.9425 56.1276 53.7969C57.4477 53.6086 58.4988 52.9802 58.9761 51.6865C59.4436 50.4134 59.2173 49.2077 58.2527 48.2314C54.8527 44.7894 51.5333 41.2611 47.9959 37.9656C41.135 31.571 33.0444 29.6695 24.0963 32.3885C12.0609 36.0427 5.01728 48.4617 7.76708 60.7162C10.2733 71.8819 20.0453 79.7182 31.4798 79.7281C34.6724 79.7313 37.8658 79.7297 41.0584 79.7281C41.2165 79.7281 41.3745 79.7141 41.6181 79.7017Z" fill="#DA1F26"/>
</svg>
