<svg width="100" height="100" viewBox="0 0 100 100" fill="none" xmlns="http://www.w3.org/2000/svg">
<g clip-path="url(#clip0_324_1431)">
<path d="M100 48.2094V51.4992C99.9687 51.6777 99.9292 51.8528 99.9086 52.0305C99.7383 53.4616 99.628 54.9017 99.3926 56.3221C98.6239 60.9385 96.9621 65.2292 94.493 69.1967C90.7432 75.2204 85.6741 79.8138 79.3037 82.9506C75.627 84.7697 71.6628 85.9387 67.5868 86.4057C66.6815 86.5102 65.777 86.6039 64.8716 86.7035H29.7407C29.5638 86.6706 29.3877 86.6179 29.2091 86.6072C25.6667 86.3843 22.2584 85.5775 19.0099 84.1571C11.9374 81.0647 6.6642 76.0527 3.21235 69.154C1.68703 66.111 0.699916 62.8274 0.29465 59.4482C0.195062 58.6266 0.0979424 57.8058 0 56.985V53.793C0.0337449 53.6162 0.0855967 53.4394 0.0962963 53.2617C0.279835 50.1948 0.909465 47.2167 2.01811 44.3545C5.00165 36.6531 10.2025 30.9412 17.5934 27.2442C21.428 25.3255 25.5152 24.3171 29.7901 24.0934C31.8831 23.9849 33.9745 24.1017 36.0551 24.3805C36.2436 24.406 36.5152 24.3221 36.6461 24.188C39.6379 21.1342 43.0444 18.6537 46.8856 16.7736C50.6115 14.9502 54.5325 13.7749 58.6601 13.3045C59.6313 13.1935 60.6049 13.1022 61.5778 13.0018H64.5728C64.7687 13.0323 64.9654 13.0668 65.1613 13.0898C66.6453 13.2625 68.1374 13.3711 69.6074 13.617C74.1934 14.386 78.4626 16.0309 82.4132 18.4744C88.4708 22.2215 93.0872 27.2936 96.2411 33.6791C98.0652 37.3549 99.2362 41.3194 99.7021 45.3958C99.8091 46.3342 99.9004 47.2726 100 48.2094ZM44.0864 26.9218C44.1465 27.0008 44.1613 27.0378 44.1868 27.0501C46.2436 28.0632 48.2094 29.2511 50.0625 30.6007C50.1794 30.6854 50.4691 30.65 50.6107 30.5612C55.7037 27.3364 61.2247 26.2236 67.1556 27.2747C72.9671 28.3044 77.6963 31.206 81.3095 35.8405C85.4008 41.0853 86.9605 47.016 85.8313 53.6145C85.0741 58.0369 83.3012 62.0044 80.2881 65.3279C74.7901 71.3869 67.9053 73.8929 59.8008 72.832C54.8115 72.1789 50.5045 70.0282 46.9399 66.4284C42.3646 61.8103 37.7597 57.2226 33.1712 52.6169C32.5597 52.0034 31.879 51.5099 30.9984 51.4021C29.4601 51.2138 28.0642 51.9812 27.4 53.362C26.8074 54.5949 26.884 55.9849 28.1695 57.2481C33.2848 62.2659 38.3547 67.3298 43.4642 72.3525C44.3387 73.2165 45.2766 74.014 46.27 74.7384C50.0025 77.4468 54.2107 78.9444 58.7679 79.5473C62.3449 80.0194 65.8938 79.9182 69.4156 79.127C76.1333 77.6195 81.6979 74.1931 86.0807 68.9064C89.6996 64.5375 91.8881 59.5173 92.651 53.881C93.0932 50.667 93.0008 47.402 92.3778 44.218C91.3613 39.0119 89.1572 34.3535 85.6255 30.3885C78.8872 22.8277 70.4099 19.4523 60.3218 20.2057C56.4412 20.4952 52.7704 21.6343 49.316 23.4412C47.452 24.409 45.6985 25.5761 44.0864 26.9218ZM41.6181 79.7036C41.4793 79.575 41.341 79.4459 41.2033 79.3162C39.1119 77.3431 37.0091 75.3824 34.9424 73.3838C34.5424 72.9973 34.1745 72.8089 33.6082 72.8221C31.5152 72.8731 29.4206 72.8821 27.358 72.4166C17.1029 70.099 11.1481 58.9572 14.9276 49.1536C17.9086 41.4233 26.1613 36.7156 34.2996 38.1672C37.9473 38.8178 41.149 40.3607 43.777 43.0691C46.9819 46.3753 50.2823 49.587 53.5218 52.8595C54.2593 53.6047 55.1062 53.9443 56.1276 53.7988C57.4477 53.6104 58.4988 52.9821 58.9761 51.6884C59.4436 50.4152 59.2173 49.2095 58.2527 48.2332C54.8527 44.7913 51.5333 41.263 47.9959 37.9674C41.135 31.5728 33.0444 29.6713 24.0963 32.3903C12.0609 36.0445 5.01728 48.4635 7.76708 60.7181C10.2733 71.8837 20.0453 79.72 31.4798 79.7299C34.6724 79.7332 37.8658 79.7315 41.0584 79.7299C41.2165 79.7299 41.3745 79.7159 41.6181 79.7036Z" fill="#DA1F26"/>
</g>
<defs>
<clipPath id="clip0_324_1431">
<rect width="100" height="100" fill="white"/>
</clipPath>
</defs>
</svg>
