<svg width="100" height="100" viewBox="0 0 100 100" fill="none" xmlns="http://www.w3.org/2000/svg">
<path d="M16 50.5672C16 53.624 18.4781 56.1021 21.5349 56.1021L64.2219 56.1021L45.8893 74.5513C43.7413 76.7128 43.7413 80.2173 45.8893 82.3788C48.0371 84.5404 51.5195 84.5404 53.6674 82.3789L81.2446 54.6266C81.2698 54.6013 81.2947 54.5757 81.3192 54.55C82.3555 53.5434 83 52.1311 83 50.5672C83 49.5933 82.7501 48.6782 82.3113 47.8833C82.0499 47.3375 81.6943 46.8261 81.2445 46.3734L53.6674 18.6211C51.5195 16.4596 48.0371 16.4596 45.8892 18.6211C43.7413 20.7827 43.7413 24.2872 45.8892 26.4487L64.3555 45.0323L21.5349 45.0323C18.4781 45.0323 16 47.5103 16 50.5672V50.5672V50.5672Z" fill="black"/>
</svg>
