<svg width="100" height="100" viewBox="0 0 100 100" fill="none" xmlns="http://www.w3.org/2000/svg">
<path d="M94.5 44.7218C97.5376 44.7218 100 47.1843 100 50.2218C100 53.2594 97.5376 55.7218 94.5 55.7218L5.5 55.7218C2.46243 55.7218 -1.58495e-06 53.2594 -1.45217e-06 50.2218C-1.3194e-06 47.1843 2.46243 44.7218 5.5 44.7218L94.5 44.7218Z" fill="inherit"/>
<path d="M29.3326 18.6109C31.4805 16.463 34.9629 16.463 37.1108 18.6109C39.2587 20.7588 39.2587 24.2412 37.1108 26.3891L9.5336 53.9662C7.38571 56.1141 3.90331 56.1141 1.75543 53.9662C-0.392453 51.8184 -0.392453 48.336 1.75543 46.1881L29.3326 18.6109Z" fill="inherit"/>
<path d="M9.53362 46.6109C7.38574 44.463 3.90333 44.463 1.75545 46.6109C-0.392437 48.7588 -0.392438 52.2412 1.75545 54.3891L29.3326 81.9662C31.4805 84.1141 34.9629 84.1141 37.1108 81.9662C39.2587 79.8184 39.2587 76.336 37.1108 74.1881L9.53362 46.6109Z" fill="inherit"/>
</svg>
