<svg width="100" height="100" viewBox="0 0 100 100" fill="none" xmlns="http://www.w3.org/2000/svg">
<path d="M49.4328 16C46.3759 16 43.8979 18.4781 43.8979 21.5349L43.8979 64.2219L25.4487 45.8893C23.2872 43.7413 19.7827 43.7413 17.6211 45.8893C15.4596 48.0371 15.4596 51.5195 17.6211 53.6674L45.3734 81.2446C45.3987 81.2698 45.4243 81.2947 45.45 81.3192C46.4566 82.3555 47.8689 83 49.4328 83C50.4067 83 51.3218 82.7501 52.1167 82.3113C52.6625 82.0499 53.1739 81.6943 53.6266 81.2445L81.3789 53.6674C83.5404 51.5195 83.5404 48.0371 81.3789 45.8892C79.2173 43.7413 75.7128 43.7413 73.5513 45.8892L54.9677 64.3555L54.9677 21.5349C54.9677 18.4781 52.4897 16 49.4328 16V16V16Z" fill="black"/>
</svg>
