<svg width="100" height="100" viewBox="0 0 100 100" fill="none" xmlns="http://www.w3.org/2000/svg">
<path d="M84 49.4328C84 46.3759 81.5219 43.8979 78.4651 43.8979L35.7781 43.8979L54.1107 25.4487C56.2587 23.2872 56.2587 19.7827 54.1107 17.6211C51.9629 15.4596 48.4805 15.4596 46.3326 17.6211L18.7554 45.3734C18.7302 45.3987 18.7053 45.4243 18.6808 45.45C17.6445 46.4566 17 47.8689 17 49.4328C17 50.4067 17.2499 51.3218 17.6887 52.1167C17.9501 52.6625 18.3057 53.1739 18.7555 53.6266L46.3326 81.3789C48.4805 83.5404 51.9629 83.5404 54.1108 81.3789C56.2587 79.2173 56.2587 75.7128 54.1108 73.5513L35.6445 54.9677L78.4651 54.9677C81.5219 54.9677 84 52.4897 84 49.4328V49.4328V49.4328Z" fill="black"/>
</svg>
