<svg width="100" height="100" viewBox="0 0 100 100" fill="none" xmlns="http://www.w3.org/2000/svg">
<path d="M44.7218 5.5C44.7218 2.46244 47.1843 0 50.2218 0C53.2594 0 55.7218 2.46243 55.7218 5.5V94.5C55.7218 97.5376 53.2594 100 50.2218 100C47.1843 100 44.7218 97.5376 44.7218 94.5V5.5Z" fill="black"/>
<path d="M18.6109 70.6674C16.463 68.5195 16.463 65.0371 18.6109 62.8892C20.7588 60.7413 24.2412 60.7413 26.3891 62.8892L53.9663 90.4664C56.1141 92.6143 56.1141 96.0967 53.9663 98.2446C51.8184 100.392 48.336 100.392 46.1881 98.2446L18.6109 70.6674Z" fill="black"/>
<path d="M46.6109 90.4664C44.463 92.6143 44.463 96.0967 46.6109 98.2446C48.7588 100.392 52.2412 100.392 54.3891 98.2446L81.9662 70.6674C84.1141 68.5195 84.1141 65.0371 81.9662 62.8892C79.8184 60.7413 76.336 60.7413 74.1881 62.8892L46.6109 90.4664Z" fill="black"/>
</svg>
