<svg width="100" height="100" viewBox="0 0 100 100" fill="none" xmlns="http://www.w3.org/2000/svg">
<path d="M50.5672 84C53.6241 84 56.1021 81.5219 56.1021 78.4651L56.1021 35.7781L74.5513 54.1107C76.7128 56.2587 80.2173 56.2587 82.3789 54.1107C84.5404 51.9629 84.5404 48.4805 82.3789 46.3326L54.6266 18.7554C54.6013 18.7302 54.5757 18.7053 54.55 18.6808C53.5434 17.6445 52.1311 17 50.5672 17C49.5933 17 48.6782 17.2499 47.8833 17.6887C47.3375 17.9501 46.8261 18.3057 46.3734 18.7555L18.6211 46.3326C16.4596 48.4805 16.4596 51.9629 18.6211 54.1108C20.7827 56.2587 24.2872 56.2587 26.4487 54.1108L45.0323 35.6445L45.0323 78.4651C45.0323 81.5219 47.5103 84 50.5672 84V84V84Z" fill="black"/>
</svg>
