<svg width="100" height="100" viewBox="0 0 100 100" fill="none" xmlns="http://www.w3.org/2000/svg">
<path d="M55.2782 94.5C55.2782 97.5376 52.8157 100 49.7782 100C46.7406 100 44.2782 97.5376 44.2782 94.5L44.2782 5.5C44.2782 2.46243 46.7406 -3.1699e-06 49.7782 -2.90434e-06C52.8158 -2.63879e-06 55.2782 2.46243 55.2782 5.5L55.2782 94.5Z" fill="inherit"/>
<path d="M81.3891 29.3326C83.537 31.4805 83.537 34.9629 81.3891 37.1108C79.2412 39.2587 75.7588 39.2587 73.6109 37.1108L46.0338 9.5336C43.8859 7.38571 43.8859 3.90331 46.0338 1.75543C48.1816 -0.392454 51.664 -0.392454 53.8119 1.75543L81.3891 29.3326Z" fill="inherit"/>
<path d="M53.3891 9.53362C55.537 7.38574 55.537 3.90333 53.3891 1.75544C51.2412 -0.392439 47.7588 -0.392439 45.6109 1.75544L18.0338 29.3326C15.8859 31.4805 15.8859 34.9629 18.0338 37.1108C20.1816 39.2587 23.664 39.2587 25.8119 37.1108L53.3891 9.53362Z" fill="inherit"/>
</svg>
