<svg width="100" height="100" viewBox="0 0 100 100" fill="none" xmlns="http://www.w3.org/2000/svg">
<path d="M85.8465 19.6523L79.3922 91.9568L50.3799 100L21.4475 91.9682L15 19.6523H85.8465Z" fill="#264DE4"/>
<path d="M73.8662 87.3527L79.3818 25.5652H50.4229V93.8521L73.8662 87.3527Z" fill="#2965F1"/>
<path d="M29.7803 52.3861L30.5752 61.2552H50.4229V52.3861H29.7803Z" fill="#EBEBEB"/>
<path d="M50.4234 34.4346H50.3928H28.1836L28.9898 43.3039H50.4234V34.4346Z" fill="#EBEBEB"/>
<path d="M50.423 84.6483V75.4205L50.3842 75.4309L40.5064 72.7637L39.875 65.6901H30.9717L32.2143 79.616L50.3822 84.6596L50.423 84.6483Z" fill="#EBEBEB"/>
<path d="M31.6729 0H42.415V4.49219H36.165V8.98438H42.415V13.4766H31.6729V0Z" fill="inherit"/>
<path d="M44.5635 0H55.3057V3.90625H49.0557V4.6875H55.3057V13.6719H44.5635V9.57031H50.8135V8.78906H44.5635V0Z" fill="inherit"/>
<path d="M57.4541 0H68.1963V3.90625H61.9463V4.6875H68.1963V13.6719H57.4541V9.57031H63.7041V8.78906H57.4541V0Z" fill="inherit"/>
<path d="M61.3141 61.2553L60.2846 72.758L50.3926 75.4279V84.6553L68.575 79.616L70.7926 54.7678L71.009 52.3861L72.6102 34.4346H50.3928L50.3926 43.3039H62.8902L62.0832 52.3861H50.3926V61.2553H61.3141Z" fill="white"/>
</svg>
