<svg width="100" height="100" viewBox="0 0 100 100" fill="none" xmlns="http://www.w3.org/2000/svg">
<path d="M29.4317 66.6407H57.3809V55.7436C57.3809 53.6754 59.0701 52.0255 61.1206 52.0255H64.073C66.1236 52.0255 67.8127 53.6754 67.8127 55.7436V69.1896C67.8127 73.5179 64.273 77 59.9397 77H26.873C22.5397 77 19 73.5179 19 69.1896V36.4515C19 32.1233 22.5397 28.6412 26.873 28.6412H52.2635C54.314 28.6412 56.0032 30.2911 56.0032 32.3593V35.2823C56.0032 37.3505 54.314 39.0004 52.2635 39.0004H29.4317V66.6407Z" fill="inherit"/>
<path d="M52.8782 57.2744L71.0465 39.2866L74.6215 42.8261C76.9563 45.1377 81 43.5329 81 40.1915V25.7181C81 23.6499 79.3109 22 77.2603 22H62.6417C59.3394 22 57.6159 25.9894 60.0029 28.3527L63.659 31.9725L45.5464 49.9052C43.6062 51.8261 43.6062 54.9567 45.5464 56.8776L45.9472 57.2744C47.8656 59.1738 50.9598 59.1738 52.8782 57.2744Z" fill="inherit"/>
</svg>
