<svg width="100" height="100" viewBox="0 0 100 100" fill="none" xmlns="http://www.w3.org/2000/svg">
<path d="M65 78C65 79.6569 63.6569 81 62 81H14C12.3431 81 11 79.6569 11 78V30C11 28.3431 12.3431 27 14 27H53C54.6569 27 56 25.6569 56 24V19C56 17.3431 54.6569 16 53 16H10C4.47715 16 0 20.4772 0 26V82C0 87.5228 4.47715 92 10 92H66C71.5228 92 76 87.5228 76 82V59C76 57.3431 74.6569 56 73 56H68C66.3431 56 65 57.3431 65 59V78Z" fill="black"/>
<path d="M44.1819 60.4577C43.0103 59.2862 43.0103 57.3867 44.1819 56.2151L80.8624 19.5346C81.9995 18.3974 83.8311 18.3592 85.0147 19.4479L88.6979 22.8358C89.9535 23.9907 89.9945 25.9588 88.7882 27.1651L51.96 63.9933C50.7885 65.1649 48.889 65.1649 47.7174 63.9933L44.1819 60.4577Z" fill="black"/>
<path d="M94.8787 37.8787C96.7686 39.7686 100 38.4301 100 35.7574V11C100 9.34315 98.6569 8 97 8H72.2426C69.5699 8 68.2314 11.2314 70.1213 13.1213L94.8787 37.8787Z" fill="black"/>
</svg>
