<svg width="100" height="100" viewBox="0 0 100 100" fill="none" xmlns="http://www.w3.org/2000/svg">
<path d="M33.5 100C42.608 100 50 92.5333 50 83.3333V66.6667H33.5C24.392 66.6667 17 74.1333 17 83.3333C17 92.5333 24.392 100 33.5 100Z" fill="#0ACF83"/>
<path d="M17 50C17 40.8 24.392 33.3333 33.5 33.3333H50V66.6667H33.5C24.392 66.6667 17 59.2 17 50Z" fill="#A259FF"/>
<path d="M17 16.6667C17 7.46667 24.392 0 33.5 0H50V33.3333H33.5C24.392 33.3333 17 25.8667 17 16.6667Z" fill="#F24E1E"/>
<path d="M50 0H66.5C75.608 0 83 7.46667 83 16.6667C83 25.8667 75.608 33.3333 66.5 33.3333L50 33.3333V0Z" fill="#FF7262"/>
<path d="M83 50C83 59.2 75.608 66.6667 66.5 66.6667C57.392 66.6667 50 59.2 50 50C50 40.8 57.392 33.3333 66.5 33.3333C75.608 33.3333 83 40.8 83 50Z" fill="#1ABCFE"/>
</svg>
