<svg width="100" height="100" viewBox="0 0 100 100" fill="none" xmlns="http://www.w3.org/2000/svg">
<path d="M5.5 55.2782C2.46244 55.2782 3.59944e-07 52.8157 3.96166e-07 49.7782C4.32389e-07 46.7406 2.46243 44.2782 5.5 44.2782L94.5 44.2782C97.5376 44.2782 100 46.7406 100 49.7782C100 52.8157 97.5376 55.2782 94.5 55.2782L5.5 55.2782Z" fill="black"/>
<path d="M70.6674 81.3891C68.5195 83.537 65.0371 83.537 62.8892 81.3891C60.7413 79.2412 60.7413 75.7588 62.8892 73.6109L90.4664 46.0337C92.6143 43.8859 96.0967 43.8859 98.2446 46.0337C100.392 48.1816 100.392 51.664 98.2446 53.8119L70.6674 81.3891Z" fill="black"/>
<path d="M90.4664 53.3891C92.6143 55.537 96.0967 55.537 98.2446 53.3891C100.392 51.2412 100.392 47.7588 98.2446 45.6109L70.6674 18.0338C68.5195 15.8859 65.0371 15.8859 62.8892 18.0338C60.7413 20.1816 60.7413 23.664 62.8892 25.8119L90.4664 53.3891Z" fill="black"/>
</svg>
