<svg width="100" height="100" viewBox="0 0 100 100" fill="none" xmlns="http://www.w3.org/2000/svg">
<path d="M17.7083 0H82.2917C92.0833 0 100 8.11966 100 18.1624V81.8376C100 91.8803 92.0833 100 82.2917 100H17.7083C7.91667 100 0 91.8803 0 81.8376V18.1624C0 8.11966 7.91667 0 17.7083 0Z" fill="#330000"/>
<path d="M48.3333 59.8291H32.8333L29.6667 69.8718C29.5833 70.2564 29.25 70.5128 28.875 70.4701H21.0417C20.5833 70.4701 20.4583 70.2137 20.5833 69.7009L34 30.0855C34.125 29.6581 34.25 29.188 34.4167 28.6752C34.5833 27.7778 34.6667 26.8376 34.6667 25.8974C34.625 25.6838 34.7917 25.4701 35 25.4273H45.7917C46.125 25.4273 46.2917 25.5556 46.3333 25.7692L61.5417 69.7863C61.6667 70.2564 61.5417 70.4701 61.125 70.4701H52.4167C52.125 70.5128 51.8333 70.2991 51.75 70L48.3333 59.8291ZM35.25 51.1538H45.8333C45.5833 50.2564 45.25 49.188 44.875 48.0769C44.5 46.9231 44.125 45.6838 43.75 44.4017C43.3333 43.0769 42.9583 41.7949 42.5417 40.4701C42.125 39.1453 41.75 37.906 41.4167 36.6667C41.0833 35.4701 40.7917 34.359 40.5 33.3333H40.4167C40.0417 35.1709 39.5833 37.0085 39 38.8462C38.375 40.8974 37.75 43.0342 37.0833 45.1709C36.5 47.3504 35.875 49.359 35.25 51.1538ZM70.8333 32.906C69.4583 32.9487 68.125 32.3932 67.125 31.4103C66.1667 30.3419 65.6667 28.9316 65.7083 27.4786C65.6667 26.0256 66.2083 24.6581 67.2083 23.6752C68.2083 22.6923 69.5417 22.1795 70.9167 22.1795C72.5417 22.1795 73.7917 22.6923 74.7083 23.6752C75.625 24.7009 76.125 26.0684 76.0833 27.4786C76.125 28.9316 75.625 30.3419 74.625 31.4103C73.6667 32.4359 72.25 32.9915 70.8333 32.906ZM66.1667 70V37.094C66.1667 36.6667 66.3333 36.4957 66.7083 36.4957H74.9583C75.3333 36.4957 75.5 36.7094 75.5 37.094V70C75.5 70.4701 75.3333 70.6838 74.9583 70.6838H66.7917C66.375 70.6838 66.1667 70.4274 66.1667 70Z" fill="#FF9A00"/>
</svg>
