<svg width="100" height="100" viewBox="0 0 100 100" fill="none" xmlns="http://www.w3.org/2000/svg">
<g clip-path="url(#clip0_864_686)">
<path d="M90.9348 0H9.06524C4.05859 0 0 4.05859 0 9.06524V90.9348C0 95.9414 4.05859 100 9.06524 100H90.9348C95.9414 100 100 95.9414 100 90.9348V9.06524C100 4.05859 95.9414 0 90.9348 0Z" fill="#DC395F"/>
<path d="M33.4199 31.4629C36.7441 31.4629 39.5289 28.8574 39.5289 25.4426C39.5289 22.0301 36.7441 19.425 33.4199 19.425C30.0957 19.425 27.3117 22.0301 27.3117 25.4426C27.3117 28.857 30.0957 31.4629 33.4199 31.4629ZM20.7535 63.6973C20.3945 65.2246 20.2145 66.8738 20.2145 68.2191C20.2145 73.5203 23.0891 77.0395 29.198 77.0395C34.2645 77.0395 38.3719 74.0309 41.3293 69.1727L39.5234 76.4199H49.584L55.334 53.3578C56.7715 47.5187 59.5563 44.4879 63.7789 44.4879C67.1027 44.4879 69.1688 46.5551 69.1688 49.9676C69.1688 50.9562 69.0789 52.0332 68.7195 53.2016L65.7547 63.802C65.3055 65.3293 65.1266 66.8574 65.1266 68.2937C65.1266 73.3262 68.0902 77.007 74.2891 77.007C79.5895 77.007 83.8113 73.5949 86.1473 65.4195L82.1949 63.8937C80.2184 69.3707 78.5113 70.3609 77.1637 70.3609C75.816 70.3609 75.0973 69.4633 75.0973 67.6676C75.0973 66.859 75.2777 65.9617 75.5465 64.8812L78.4219 54.5539C79.1402 52.1289 79.4102 49.9785 79.4102 48.0027C79.4102 40.2769 74.7383 36.2449 69.0789 36.2449C63.7789 36.2449 58.3883 41.0258 55.6938 46.0574L57.6695 37.0262H42.3086L40.1523 44.9809H47.3395L42.9137 62.6996C39.4383 70.4254 33.0543 70.5508 32.2531 70.3715C30.9375 70.0746 30.0961 69.575 30.0961 67.8656C30.0961 66.8793 30.2758 65.4625 30.725 63.7543L37.4633 37.0262H20.3945L18.2383 44.9809H25.3348L20.7535 63.6973Z" fill="white"/>
</g>
<defs>
<clipPath id="clip0_864_686">
<rect width="100" height="100" fill="white"/>
</clipPath>
</defs>
</svg>
