<svg width="100" height="100" viewBox="0 0 100 100" fill="none" xmlns="http://www.w3.org/2000/svg">
<path fill-rule="evenodd" clip-rule="evenodd" d="M12.5793 35.5856C10.8551 40.0588 9.90991 44.919 9.90991 50C9.90991 51.8331 10.0329 53.6375 10.2712 55.4054H22.6747C22.574 53.6267 22.5225 51.823 22.5225 50C22.5225 45.0114 22.9077 40.1677 23.6346 35.5856H12.5793ZM18.1298 25.6757H25.855C26.8999 22.1463 28.1715 18.8741 29.6423 15.9324C29.7559 15.7053 29.8713 15.4791 29.9884 15.2539C25.3779 17.9151 21.3465 21.4674 18.1298 25.6757ZM50 0C22.3858 0 0 22.3858 0 50C0 77.6142 22.3858 100 50 100C77.6142 100 100 77.6142 100 50C100 22.3858 77.6142 0 50 0ZM50 9.90991C46.6685 9.90991 42.3184 12.7395 38.506 20.3643C37.6946 21.9871 36.9447 23.764 36.2689 25.6757H63.7311C63.0553 23.764 62.3054 21.9871 61.494 20.3643C57.6816 12.7395 53.3315 9.90991 50 9.90991ZM74.145 25.6757C73.1001 22.1463 71.8285 18.8741 70.3577 15.9324C70.2441 15.7053 70.1287 15.4791 70.0116 15.2539C74.6221 17.9151 78.6535 21.4674 81.8702 25.6757H74.145ZM66.3149 35.5856H33.6851C32.8809 40.0411 32.4324 44.8935 32.4324 50C32.4324 51.8369 32.4905 53.6409 32.6022 55.4054H67.3978C67.5095 53.6409 67.5676 51.8369 67.5676 50C67.5676 44.8935 67.1191 40.0411 66.3149 35.5856ZM77.3253 55.4054C77.426 53.6267 77.4775 51.823 77.4775 50C77.4775 45.0114 77.0923 40.1677 76.3654 35.5856H87.4207C89.1449 40.0588 90.0901 44.919 90.0901 50C90.0901 51.8331 89.9671 53.6375 89.7288 55.4054H77.3253ZM66.1464 65.3153H33.8536C34.9186 70.817 36.5298 75.6834 38.506 79.6357C42.3184 87.2605 46.6685 90.0901 50 90.0901C53.3315 90.0901 57.6816 87.2605 61.494 79.6357C63.4702 75.6834 65.0814 70.817 66.1464 65.3153ZM70.0116 84.7461C70.1287 84.5209 70.2441 84.2947 70.3577 84.0676C73.0156 78.7517 75.0227 72.3564 76.2176 65.3153H87.0607C83.6673 73.5177 77.6302 80.3487 70.0116 84.7461ZM29.9884 84.746C29.8713 84.5209 29.7559 84.2947 29.6423 84.0676C26.9844 78.7517 24.9773 72.3564 23.7824 65.3153H12.9393C16.3326 73.5177 22.3698 80.3487 29.9884 84.746Z" fill="inherit"/>
</svg>
