<svg width="100" height="100" viewBox="0 0 100 100" fill="none" xmlns="http://www.w3.org/2000/svg">
<path d="M79.8267 95.7784V44.0633C79.8267 24.8021 73.75 11.0818 61.8608 4.48549C81.6761 5.80475 92.7727 20.0528 92.7727 44.3272V95.7784H79.8267ZM21.1733 44.0633V95.7784H8.22727V44.3272C8.22727 20.0528 19.3239 5.80475 39.4034 4.48549C27.25 11.0818 21.1733 24.8021 21.1733 44.0633ZM59.2187 0C56.0483 0 53.4063 0.263852 50.5 0.791557C47.858 0.263852 44.9517 0 41.7812 0C16.4176 0 4 16.3588 4 44.0633V100H25.4006V44.3272C25.4006 22.6913 34.1193 8.97098 50.5 5.27704C66.6165 8.97098 75.5994 22.4274 75.5994 44.3272V100H97V44.0633C97 16.3588 84.5824 0 59.2187 0Z" fill="black"/>
</svg>
