<svg width="100" height="100" viewBox="0 0 100 100" fill="none" xmlns="http://www.w3.org/2000/svg">
<g clip-path="url(#clip0_286_591)">
<path d="M91.5679 77.0622C94.6012 77.0622 97.0603 74.6031 97.0603 71.5698C97.0603 68.5364 94.6012 66.0774 91.5679 66.0774C88.5345 66.0774 86.0755 68.5364 86.0755 71.5698C86.0755 74.6031 88.5345 77.0622 91.5679 77.0622Z" fill="inherit"/>
<path d="M55.6466 22.2861C57.2121 20.2553 58.1776 17.8266 58.4337 15.2752C58.6899 12.7239 58.2266 10.1517 57.0961 7.85015C55.9657 5.54857 54.2134 3.60951 52.0376 2.25258C49.8619 0.895659 47.3497 0.175093 44.7855 0.172489C43.8635 0.171864 42.9437 0.26154 42.0393 0.440239C38.9378 1.07332 36.1504 2.75852 34.1487 5.21063C32.1469 7.66274 31.0539 10.7311 31.0545 13.8965V53.548C31.0525 54.7686 30.644 55.9536 29.8935 56.9162C29.143 57.8787 28.0933 58.5638 26.9101 58.8633C25.7269 59.1629 24.4776 59.0598 23.3596 58.5703C22.2415 58.0808 21.3183 57.2329 20.7358 56.1603L13.7673 44.1046C13.421 43.4534 12.9471 42.8787 12.3738 42.4147C11.8006 41.9507 11.1398 41.6068 10.4308 41.4037C9.7218 41.2006 8.97916 41.1424 8.24717 41.2325C7.51518 41.3226 6.80884 41.5592 6.17027 41.9281C5.5317 42.2971 4.97398 42.7909 4.53038 43.3801C4.08678 43.9693 3.76638 44.6418 3.5883 45.3575C3.41022 46.0732 3.3781 46.8174 3.49386 47.5458C3.60962 48.2741 3.87088 48.9717 4.26207 49.597L31.0374 96.0041L31.7686 97.2673C32.372 98.3167 33.3053 99.1373 34.4233 99.6016C35.5413 100.066 36.7813 100.148 37.9507 99.8346C39.12 99.5214 40.1531 98.8307 40.8894 97.8698C41.6257 96.9089 42.0239 95.7317 42.0221 94.5211V63.115C44.8437 64.7473 47.9931 65.7313 51.242 65.9956C54.491 66.2599 57.7581 65.7979 60.8063 64.6431C63.8546 63.4883 66.6077 61.6697 68.866 59.319C71.1244 56.9684 72.8313 54.1447 73.8631 51.0526C74.8949 47.9606 75.2258 44.6776 74.8316 41.4419C74.4375 38.2061 73.3282 35.0986 71.5842 32.3447C69.8403 29.5907 67.5054 27.2594 64.7488 25.5196C61.9922 23.7799 58.883 22.6754 55.6466 22.2861ZM36.5435 13.9C36.5415 12.1507 37.0963 10.4462 38.1276 9.03335C39.1589 7.62045 40.6132 6.57249 42.2798 6.0412C43.9464 5.50991 45.7389 5.52289 47.3976 6.07824C49.0564 6.6336 50.4953 7.70251 51.5061 9.13019C52.5168 10.5579 53.0469 12.2702 53.0196 14.0192C52.9923 15.7683 52.4089 17.4632 51.3541 18.8586C50.2993 20.2541 48.8276 21.2775 47.1523 21.7808C45.4771 22.2841 43.6851 22.241 42.0359 21.658C40.4311 21.0906 39.0415 20.0401 38.058 18.6509C37.0745 17.2618 36.5454 15.6021 36.5435 13.9ZM53.0206 57.8389C50.3049 57.8389 47.6501 57.0336 45.3921 55.5249C43.1341 54.0161 41.3741 51.8716 40.3349 49.3626C39.2956 46.8536 39.0237 44.0928 39.5535 41.4292C40.0833 38.7657 41.3911 36.3191 43.3114 34.3988C45.2317 32.4785 47.6783 31.1707 50.3418 30.6409C53.0054 30.1111 55.7662 30.383 58.2752 31.4223C60.7842 32.4616 62.9287 34.2215 64.4374 36.4795C65.9462 38.7376 66.7515 41.3923 66.7515 44.108C66.7524 45.9106 66.3978 47.6957 65.7078 49.3611C65.0179 51.0264 64.0062 52.5394 62.7308 53.8132C61.4554 55.087 59.9412 56.0968 58.275 56.7847C56.6087 57.4725 54.8232 57.8249 53.0206 57.8218V57.8389Z" fill="inherit"/>
</g>
<defs>
<clipPath id="clip0_286_591">
<rect width="100" height="100" fill="white"/>
</clipPath>
</defs>
</svg>
