<svg width="100" height="100" viewBox="0 0 100 100" fill="none" xmlns="http://www.w3.org/2000/svg">
<path fill-rule="evenodd" clip-rule="evenodd" d="M40.9388 33.5009C35.0063 36.8449 31 43.2046 31 50.5C31 61.2696 39.7304 70 50.5 70C59.5114 70 67.0951 63.8874 69.3311 55.5823C66.7358 56.7935 63.8406 57.4706 60.7941 57.4706C49.6347 57.4706 40.5882 48.4241 40.5882 37.2647C40.5882 35.9788 40.7087 34.7206 40.9388 33.5009ZM20 50.5C20 33.6553 33.6553 20 50.5 20C53.4339 20 55.4797 21.991 56.1896 24.086C56.877 26.1146 56.5033 28.6996 54.5576 30.493C52.7245 32.1827 51.5882 34.5869 51.5882 37.2647C51.5882 42.349 55.7099 46.4706 60.7941 46.4706C62.9023 46.4706 64.8309 45.7686 66.3806 44.5828C68.7864 42.7418 71.9054 42.1952 74.5651 42.7771C75.9533 43.0808 77.5408 43.7647 78.8398 45.1057C80.2224 46.5332 81 48.432 81 50.5C81 67.3447 67.3447 81 50.5 81C33.6553 81 20 67.3447 20 50.5Z" fill="inherit"/>
</svg>
