<svg width="100" height="100" viewBox="0 0 100 100" fill="none" xmlns="http://www.w3.org/2000/svg">
<path d="M25 27.2C25 23.2236 28.2104 20 32.1707 20H33.3659C37.3261 20 40.5366 23.2236 40.5366 27.2V72.8C40.5366 76.7765 37.3261 80 33.3659 80H32.1707C28.2104 80 25 76.7765 25 72.8V27.2Z" fill="inherit"/>
<path d="M58.4634 27.2C58.4634 23.2236 61.6739 20 65.6341 20H66.8293C70.7896 20 74 23.2236 74 27.2V72.8C74 76.7765 70.7896 80 66.8293 80H65.6341C61.6739 80 58.4634 76.7765 58.4634 72.8V27.2Z" fill="inherit"/>
</svg>
