<svg width="100" height="100" viewBox="0 0 100 100" fill="none" xmlns="http://www.w3.org/2000/svg">
<path d="M90.842 33.0382C92.1561 32.0581 99.35 26.2444 99.9958 18.0027C100.046 15.6887 99.64 13.3876 98.8008 11.2306C97.9616 9.07366 96.7057 7.1032 95.1048 5.43182C93.504 3.76044 91.5896 2.42088 89.4709 1.48966C87.3523 0.558444 85.071 0.0538241 82.7573 0.0046273H82.0446C73.7817 0.628322 67.9909 7.84537 66.9887 9.15958C62.106 15.79 58.8209 23.4589 57.3895 31.5681C52.4923 32.0135 47.5648 32.0135 42.6676 31.5681C41.2107 23.4762 37.9194 15.8258 33.0461 9.20413C32.0662 7.88992 26.2532 0.672872 17.9902 0.0046273C15.6732 -0.0485576 13.3686 0.357179 11.209 1.19847C9.0494 2.03977 7.07755 3.3 5.40697 4.90662C3.73639 6.51323 2.40008 8.43447 1.47498 10.5597C0.549889 12.685 0.0542844 14.9723 0.0167081 17.2899C-0.00556937 17.527 -0.00556937 17.7656 0.0167081 18.0027C0.640325 26.2666 7.83419 32.0581 9.17051 33.0605C15.8001 37.9437 23.468 41.2293 31.5762 42.6609C32.0216 47.5587 32.0216 52.4868 31.5762 57.3846C23.4817 58.8294 15.8295 62.1223 9.21506 67.0073C7.87873 67.9874 0.684869 73.6898 0.0612522 82.0428C0.011029 84.3546 0.41744 86.6535 1.25719 88.808C2.09695 90.9624 3.35354 92.9299 4.95495 94.5977C6.55636 96.2655 8.47111 97.6009 10.5895 98.5273C12.7078 99.4537 14.9882 99.9529 17.2998 99.9963H17.9902C26.2532 99.3726 32.0439 92.1556 33.0461 90.8414C37.9288 84.211 41.2139 76.5421 42.6454 68.4329C47.5425 67.9875 52.47 67.9875 57.3672 68.4329C58.8053 76.544 62.0981 84.213 66.9887 90.8414C67.9687 92.1556 73.6703 99.3504 82.0223 99.9963C84.333 100.044 86.6304 99.6351 88.7833 98.7942C90.9361 97.9533 92.9022 96.6964 94.5692 95.0953C96.2362 93.4943 97.5715 91.5805 98.4988 89.4632C99.4261 87.3459 99.9273 85.0666 99.9736 82.7556C99.9959 82.5185 99.9959 82.2799 99.9736 82.0428C99.35 73.7789 92.1561 67.9874 90.8198 66.985C84.1902 62.1018 76.5223 58.8162 68.4141 57.3846C68.1914 54.9789 68.08 52.5064 68.08 50.0116C68.08 47.5168 68.2137 45.0443 68.4141 42.6609C76.5304 41.2205 84.2052 37.9276 90.842 33.0382ZM76.8329 16.9558L77.0111 16.733C78.4823 14.6903 80.602 13.2064 83.0246 12.5231C83.3809 12.5231 84.3609 12.5231 85.9867 14.06C87.6126 15.597 87.5235 16.6439 87.5012 17.0226C86.8278 19.4501 85.342 21.5731 83.2918 23.0368L83.0691 23.1927C79.4361 25.8974 75.3256 27.8925 70.9531 29.0733C72.1388 24.7021 74.1331 20.592 76.8329 16.9558ZM29.0817 29.0733C24.7122 27.8957 20.6024 25.9086 16.9657 23.215L16.743 23.0368C14.7006 21.5655 13.2168 19.4455 12.5336 17.0226C12.5336 16.6662 12.5336 15.6861 14.0704 14.06C15.6071 12.434 16.6539 12.5231 17.0325 12.5454C19.4551 13.2286 21.5748 14.7126 23.046 16.7553L23.2019 16.978C25.9062 20.6115 27.901 24.7225 29.0817 29.0955V29.0733ZM23.2019 83.0897L23.046 83.3125C21.5814 85.3572 19.4581 86.8358 17.0325 87.5001C16.6539 87.5001 15.6739 87.5001 14.0704 85.9855C12.4668 84.4708 12.5336 83.4016 12.5559 83.0229C13.2332 80.6032 14.7089 78.4836 16.743 77.0087L16.9657 76.8528C20.604 74.1567 24.7128 72.1624 29.0817 70.9722C27.9043 75.3423 25.9174 79.4526 23.2242 83.0897H23.2019ZM55.6968 55.6917C53.8259 55.5803 51.9105 55.5135 49.9729 55.5135C48.0352 55.5135 46.1421 55.5135 44.2712 55.6917C44.3826 53.8206 44.4494 51.905 44.4494 49.9671C44.4494 48.0292 44.4494 46.1358 44.2712 44.2647C48.0758 44.5097 51.8922 44.5097 55.6968 44.2647C55.6968 46.1358 55.5409 48.0514 55.5186 49.9893C55.4963 51.9272 55.6968 53.8652 55.6968 55.6917ZM70.9308 70.9277C75.3021 72.1007 79.4126 74.0882 83.0468 76.786L83.2696 76.9642C85.3197 78.4279 86.8056 80.5508 87.479 82.9784C87.479 83.357 87.479 84.3371 85.9645 85.9409C84.45 87.5447 83.3586 87.4779 83.0023 87.4556C80.5783 86.7879 78.456 85.31 76.9888 83.2679L76.8107 83.0452C74.1219 79.4053 72.1354 75.2959 70.9531 70.9277H70.9308Z" fill="black"/>
</svg>
