<svg width="100" height="100" viewBox="0 0 100 100" fill="none" xmlns="http://www.w3.org/2000/svg">
<path fill-rule="evenodd" clip-rule="evenodd" d="M40.906 33.7436C39.2472 36.1777 37.6267 38.7538 36.0683 41.4539C34.5099 44.154 33.0899 46.8459 31.812 49.4999C33.0899 52.154 34.5099 54.8459 36.0683 57.546C37.6267 60.2461 39.2472 62.8222 40.906 65.2563C43.8427 65.4762 46.8832 65.592 50 65.592C53.1168 65.592 56.1573 65.4762 59.094 65.2563C60.7528 62.8222 62.3733 60.2461 63.9317 57.546C65.4901 54.8459 66.9101 52.154 68.188 49.4999C66.9101 46.8459 65.4901 44.154 63.9317 41.4539C62.3733 38.7538 60.7528 36.1777 59.094 33.7436C56.1573 33.5237 53.1168 33.4079 50 33.4079C46.8832 33.4079 43.8427 33.5237 40.906 33.7436ZM35.3289 34.3001C34.2978 35.9125 33.2873 37.5738 32.303 39.2793C31.3186 40.9848 30.3855 42.6908 29.5052 44.3903C28.2684 41.4542 27.2169 38.5913 26.3561 35.8448C29.1643 35.2173 32.1686 34.6967 35.3289 34.3001ZM44.1762 29.1904C46.0878 29.1033 48.0313 29.0587 50 29.0587C51.9687 29.0587 53.9122 29.1033 55.8237 29.1904C53.9002 26.651 51.9474 24.3086 50 22.1897C48.0526 24.3086 46.0998 26.651 44.1762 29.1904ZM46.9667 19.0645C44.1037 22.1622 41.2523 25.6939 38.5031 29.5805C33.7637 30.0188 29.2805 30.7231 25.1672 31.6545C24.6985 29.8005 24.3271 28.0164 24.055 26.3175C23.3468 21.8956 23.3302 18.1688 23.9363 15.334C24.5425 12.4989 25.7087 10.7976 27.1739 9.9514C28.6391 9.1052 30.6951 8.94559 33.4527 9.83798C36.21 10.7303 39.4282 12.6081 42.9023 15.4325C44.237 16.5177 45.596 17.7315 46.9667 19.0645ZM53.0333 19.0645C55.8963 22.1622 58.7477 25.6939 61.4969 29.5805C66.2363 30.0188 70.7195 30.7231 74.8328 31.6545C75.3015 29.8005 75.6729 28.0164 75.945 26.3175C76.6532 21.8956 76.6698 18.1688 76.0637 15.334C75.4575 12.4989 74.2913 10.7976 72.8261 9.9514C71.3609 9.1052 69.3049 8.94559 66.5473 9.83797C63.79 10.7303 60.5718 12.6081 57.0977 15.4325C55.7629 16.5177 54.404 17.7315 53.0333 19.0645ZM79.0471 32.7243C79.5468 30.7479 79.9448 28.8364 80.2381 27.0055C80.9954 22.2768 81.0731 17.9681 80.3153 14.4243C79.5577 10.8809 77.9018 7.86077 75 6.18487C72.0982 4.50897 68.6556 4.58457 65.209 5.69991C61.7622 6.81535 58.0707 9.037 54.3555 12.0574C52.9171 13.2269 51.4612 14.5275 50 15.9486C48.5388 14.5275 47.0829 13.2269 45.6445 12.0574C41.9293 9.03701 38.2378 6.81536 34.791 5.69992C31.3444 4.58457 27.9018 4.50898 25 6.18488C22.0982 7.86078 20.4423 10.8809 19.6847 14.4243C18.9269 17.9681 19.0046 22.2768 19.7619 27.0055C20.0552 28.8364 20.4532 30.7479 20.9529 32.7243C18.992 33.2795 17.1381 33.8905 15.4064 34.5519C10.9339 36.2601 7.16475 38.3472 4.47563 40.7755C1.78675 43.2036 0 46.1481 0 49.4999C0 52.8517 1.78675 55.7963 4.47563 58.2243C7.16475 60.6526 10.9339 62.7398 15.4064 64.448C17.1381 65.1094 18.992 65.7203 20.9529 66.2756C20.4532 68.252 20.0552 70.1635 19.7619 71.9944C19.0046 76.7231 18.9269 81.0318 19.6847 84.5756C20.4423 88.119 22.0982 91.1391 25 92.815C27.9018 94.4909 31.3444 94.4153 34.791 93.3C38.2378 92.1845 41.9293 89.9629 45.6445 86.9424C47.0829 85.773 48.5388 84.4724 50 83.0513C51.4612 84.4724 52.9171 85.773 54.3555 86.9424C58.0707 89.9629 61.7622 92.1845 65.209 93.3C68.6556 94.4153 72.0982 94.4909 75 92.815C77.9018 91.1391 79.5577 88.119 80.3153 84.5756C81.0731 81.0318 80.9954 76.7231 80.2381 71.9944C79.9448 70.1635 79.5468 68.252 79.0471 66.2756C81.008 65.7203 82.8619 65.1094 84.5936 64.448C89.0661 62.7398 92.8353 60.6526 95.5244 58.2243C98.2133 55.7963 100 52.8517 100 49.4999C100 46.1481 98.2133 43.2036 95.5244 40.7755C92.8353 38.3472 89.0661 36.2601 84.5936 34.5519C82.8619 33.8905 81.008 33.2795 79.0471 32.7243ZM73.6439 35.8448C70.8357 35.2173 67.8314 34.6967 64.6711 34.3001C65.7022 35.9125 66.7127 37.5738 67.697 39.2793C68.6814 40.9848 69.6145 42.6908 70.4948 44.3903C71.7316 41.4542 72.7831 38.5913 73.6439 35.8448ZM72.9937 49.4999C74.9839 45.175 76.6158 40.939 77.8661 36.91C79.7056 37.4309 81.4358 38.0013 83.0427 38.615C87.225 40.2124 90.4598 42.0614 92.611 44.0039C94.7624 45.9466 95.6522 47.8075 95.6522 49.4999C95.6522 51.1923 94.7624 53.0533 92.611 54.996C90.4598 56.9385 87.225 58.7875 83.0427 60.3849C81.4358 60.9986 79.7056 61.569 77.8661 62.0899C76.6158 58.0608 74.9839 53.8249 72.9937 49.4999ZM70.4948 54.6096C69.6145 56.3091 68.6814 58.0151 67.697 59.7206C66.7127 61.4261 65.7022 63.0874 64.6711 64.6998C67.8314 64.3032 70.8357 63.7826 73.6439 63.1551C72.7831 60.4086 71.7316 57.5457 70.4948 54.6096ZM74.8328 67.3454C70.7195 68.2768 66.2363 68.9811 61.4969 69.4194C58.7477 73.306 55.8963 76.8377 53.0333 79.9354C54.404 81.2684 55.7629 82.4822 57.0977 83.5674C60.5718 86.3918 63.79 88.2696 66.5473 89.1619C69.3049 90.0543 71.3609 89.8947 72.8261 89.0485C74.2913 88.2023 75.4575 86.501 76.0637 83.6659C76.6698 80.8311 76.6532 77.1042 75.945 72.6824C75.6729 70.9835 75.3015 69.1994 74.8328 67.3454ZM50 76.8102C51.9474 74.6913 53.9002 72.3489 55.8237 69.8094C53.9122 69.8965 51.9687 69.9412 50 69.9412C48.0313 69.9412 46.0878 69.8965 44.1763 69.8094C46.0998 72.3489 48.0526 74.6913 50 76.8102ZM35.3289 64.6998C34.2978 63.0874 33.2873 61.4261 32.303 59.7206C31.3186 58.0151 30.3855 56.3091 29.5052 54.6096C28.2684 57.5457 27.2169 60.4086 26.3561 63.1551C29.1643 63.7826 32.1686 64.3032 35.3289 64.6998ZM25.1672 67.3454C29.2805 68.2768 33.7637 68.9811 38.5031 69.4194C41.2523 73.306 44.1037 76.8377 46.9667 79.9354C45.596 81.2684 44.237 82.4822 42.9023 83.5674C39.4282 86.3918 36.21 88.2696 33.4527 89.1619C30.6951 90.0543 28.6391 89.8947 27.1739 89.0485C25.7087 88.2023 24.5425 86.501 23.9363 83.6659C23.3302 80.8311 23.3468 77.1042 24.055 72.6824C24.3271 70.9835 24.6985 69.1994 25.1672 67.3454ZM22.1338 62.0899C20.2944 61.569 18.5642 60.9986 16.9573 60.3849C12.775 58.7875 9.54016 56.9385 7.38902 54.996C5.23764 53.0533 4.34783 51.1923 4.34783 49.4999C4.34783 47.8075 5.23764 45.9466 7.38902 44.0039C9.54016 42.0614 12.775 40.2124 16.9573 38.615C18.5642 38.0013 20.2944 37.4309 22.1338 36.91C23.3842 40.939 25.0161 45.175 27.0063 49.4999C25.0161 53.8249 23.3842 58.0608 22.1338 62.0899ZM50 42.7587C46.2781 42.7587 43.2609 45.7768 43.2609 49.4999C43.2609 53.223 46.2781 56.2412 50 56.2412C53.7219 56.2412 56.7391 53.223 56.7391 49.4999C56.7391 45.7768 53.7219 42.7587 50 42.7587ZM38.913 49.4999C38.913 43.3748 43.8768 38.4095 50 38.4095C56.1232 38.4095 61.087 43.3748 61.087 49.4999C61.087 55.625 56.1232 60.5904 50 60.5904C43.8768 60.5904 38.913 55.625 38.913 49.4999Z" fill="#61DAFB"/>
</svg>
