<svg width="100" height="100" viewBox="0 0 100 100" fill="none" xmlns="http://www.w3.org/2000/svg">
<path d="M13.0928 92.15L10.0032 9.60018C9.95657 8.28907 10.4223 7.01156 11.3012 6.04013C12.18 5.06869 13.4023 4.48021 14.7074 4.40019L84.6729 0.0101999C85.3565 -0.0335677 86.0417 0.0638312 86.6863 0.296374C87.3309 0.528917 87.9211 0.89166 88.4204 1.36217C88.9197 1.83269 89.3175 2.40097 89.5892 3.03187C89.8609 3.66278 90.0007 4.34291 90 5.03019V94.975C89.9993 95.654 89.8616 96.326 89.5952 96.9502C89.3288 97.5744 88.9391 98.1381 88.4497 98.6071C87.9603 99.0762 87.3813 99.441 86.7476 99.6795C86.114 99.918 85.4387 100.025 84.7626 99.995L17.8768 96.98C16.6203 96.9232 15.4309 96.3945 14.5447 95.4989C13.6586 94.6033 13.1403 93.4111 13.0928 92.15Z" fill="#FF4785"/>
<path fill-rule="evenodd" clip-rule="evenodd" d="M79.173 0.354003L69.5452 0.954002L69.0768 12.289C69.0711 12.4308 69.1056 12.5713 69.1763 12.6943C69.247 12.8172 69.351 12.9175 69.4762 12.9835C69.6015 13.0495 69.7428 13.0784 69.8838 13.067C70.0248 13.0556 70.1597 13.0043 70.2728 12.919L74.6581 9.57898L78.3657 12.509C78.4776 12.5979 78.6126 12.6527 78.7546 12.6671C78.8966 12.6815 79.0398 12.6548 79.1672 12.5901C79.2945 12.5254 79.4008 12.4254 79.4734 12.3021C79.5459 12.1787 79.5817 12.0371 79.5766 11.894L79.173 0.354003ZM71.6781 38.3039C69.919 39.6789 56.783 40.6139 56.783 38.6589C57.0621 31.1939 53.7333 30.8689 51.8795 30.8689C50.1253 30.8689 47.1653 31.3989 47.1653 35.3989C47.1653 39.4739 51.4908 41.7739 56.5687 44.4739C63.7796 48.3089 72.5153 52.9539 72.5153 64.6339C72.5153 75.8338 63.4457 82.0138 51.8845 82.0138C39.9495 82.0138 29.5194 77.1688 30.6955 60.3739C31.1589 58.4039 46.3331 58.8739 46.3331 60.3739C46.1437 67.3038 47.7184 69.3438 51.6951 69.3438C54.7498 69.3438 56.1352 67.6538 56.1352 64.8139C56.1352 60.5089 51.6303 57.9689 46.4427 55.0489C39.4212 51.0939 31.1589 46.4389 31.1589 35.7539C31.1589 25.0939 38.4644 17.984 51.5107 17.984C64.557 17.984 71.6781 24.9839 71.6781 38.3039Z" fill="white"/>
</svg>
