<svg width="100" height="100" viewBox="0 0 100 100" fill="inherit" xmlns="http://www.w3.org/2000/svg">
<path clip-rule="evenodd" d="M50 64C57.732 64 64 57.732 64 50C64 42.268 57.732 36 50 36C42.268 36 36 42.268 36 50C36 57.732 42.268 64 50 64ZM50 75C63.8071 75 75 63.8071 75 50C75 36.1929 63.8071 25 50 25C36.1929 25 25 36.1929 25 50C25 63.8071 36.1929 75 50 75Z"/>
<path d="M56 8.5C56 11.5376 53.5376 14 50.5 14C47.4624 14 45 11.5376 45 8.5V5.5C45 2.46243 47.4624 -2.65552e-07 50.5 0C53.5376 2.65552e-07 56 2.46243 56 5.5V8.5Z"/>
<path d="M5.5 56C2.46243 56 -3.98329e-07 53.5376 0 50.5C3.98329e-07 47.4624 2.46243 45 5.5 45H8.5C11.5376 45 14 47.4624 14 50.5C14 53.5376 11.5376 56 8.5 56H5.5Z"/>
<path d="M56 94.5C56 97.5376 53.5376 100 50.5 100C47.4624 100 45 97.5376 45 94.5V91.5C45 88.4624 47.4624 86 50.5 86C53.5376 86 56 88.4624 56 91.5V94.5Z"/>
<path d="M91.5 56C88.4624 56 86 53.5376 86 50.5C86 47.4624 88.4624 45 91.5 45H94.5C97.5376 45 100 47.4624 100 50.5C100 53.5376 97.5376 56 94.5 56H91.5Z"/>
<path d="M83.5876 24.8977C81.4397 27.0456 77.9573 27.0456 75.8094 24.8977C73.6615 22.7498 73.6615 19.2674 75.8094 17.1195L77.9307 14.9982C80.0786 12.8503 83.561 12.8503 85.7089 14.9982C87.8568 17.1461 87.8568 20.6285 85.7089 22.7764L83.5876 24.8977Z"/>
<path d="M14.2911 22.7764C12.1432 20.6285 12.1432 17.1461 14.2911 14.9982C16.4389 12.8503 19.9214 12.8503 22.0692 14.9982L24.1906 17.1195C26.3384 19.2674 26.3384 22.7498 24.1906 24.8977C22.0427 27.0456 18.5603 27.0456 16.4124 24.8977L14.2911 22.7764Z"/>
<path d="M22.7764 85.7089C20.6285 87.8568 17.1461 87.8568 14.9982 85.7089C12.8504 83.561 12.8504 80.0786 14.9982 77.9307L17.1196 75.8094C19.2674 73.6615 22.7499 73.6615 24.8977 75.8094C27.0456 77.9573 27.0456 81.4397 24.8977 83.5876L22.7764 85.7089Z"/>
<path d="M75.1023 83.5876C72.9545 81.4397 72.9545 77.9573 75.1023 75.8094C77.2502 73.6615 80.7326 73.6615 82.8805 75.8094L85.0018 77.9307C87.1497 80.0786 87.1497 83.561 85.0018 85.7089C82.854 87.8568 79.3715 87.8568 77.2237 85.7089L75.1023 83.5876Z"/>
</svg>
