<svg width="100" height="100" viewBox="0 0 100 100" fill="none" xmlns="http://www.w3.org/2000/svg">
<path fill-rule="evenodd" clip-rule="evenodd" d="M100 50C100 77.6142 77.6142 100 50 100C22.3858 100 0 77.6142 0 50C0 22.3858 22.3858 0 50 0C77.6142 0 100 22.3858 100 50ZM59.0479 25.3509C62.3448 21.4787 66.7816 18.6788 71.8596 18.5006C76.9341 18.3368 80.7706 20.6344 80.8989 24.2769C80.9487 25.8265 80.0582 28.8383 76.9644 28.9399C74.6507 29.0218 73.053 27.6396 72.9782 25.5379C72.955 24.7649 73.1527 24.0934 73.6817 23.3062C73.769 23.1351 73.8447 22.9898 73.9101 22.8641C74.2315 22.2466 74.3048 22.1058 74.2944 21.7387C74.2481 20.4171 72.2461 20.3637 71.6993 20.3922C64.1954 20.6362 62.2148 30.7673 60.6135 39.0033L59.8263 43.3475C64.1473 43.9816 67.2162 43.2014 68.9279 42.0918C70.3858 41.1468 69.8333 40.1855 69.2549 39.1791C68.8772 38.5219 68.4884 37.8456 68.6411 37.142C69.0365 35.3288 70.6859 34.456 71.9968 34.4186C73.8313 34.3759 75.1405 36.2764 75.0995 38.2089C75.0336 41.4007 70.7963 45.7912 62.3234 45.6095C61.2904 45.5864 60.3428 45.5133 59.454 45.4082L57.8581 54.2302L57.8145 54.4338C56.3871 61.0976 54.4533 70.1255 47.7199 78.0119C41.876 84.9601 35.9448 86.0413 33.2874 86.1285C28.318 86.2995 25.0229 83.6474 24.9054 80.1136C24.7914 76.6867 27.8175 74.8183 29.807 74.7524C32.4574 74.6616 34.2919 76.5817 34.365 78.8009C34.4309 80.6729 33.453 81.2571 32.8065 81.6116C32.7433 81.6622 32.6755 81.7131 32.6058 81.7653C32.1974 82.0712 31.7236 82.4261 31.7449 83.0864C31.7627 83.4177 32.1172 84.1764 33.2197 84.1408C35.2666 84.0696 36.645 83.0829 37.6157 82.3882C37.6408 82.3701 37.6657 82.3523 37.6903 82.3347C42.5315 78.3005 44.3928 71.2739 46.8347 58.4746L47.3459 55.3755L47.3668 55.2705C48.1932 51.1333 49.1121 46.5325 50.5092 41.9493C49.4708 41.1673 48.559 40.3282 47.6634 39.5042C45.6157 37.62 43.6534 35.8144 40.46 34.9494C37.3127 34.0963 35.3945 34.823 34.0462 36.5275C32.4503 38.5455 32.9792 41.1727 34.5235 42.7169L37.0705 45.5329C40.1964 49.1468 41.9063 51.9575 41.2633 55.737C40.2445 61.7715 33.0541 66.4025 24.5545 63.7895C17.2999 61.5507 15.9445 56.4192 16.8172 53.5854C17.5849 51.0972 19.562 50.627 21.4981 51.2183C23.5713 51.8577 24.3817 54.3763 23.7886 56.3141C23.7823 56.3336 23.7756 56.3544 23.7685 56.3764C23.7018 56.5845 23.5984 56.9071 23.4003 57.3258C23.3015 57.5448 23.168 57.7529 23.0317 57.9654C22.8365 58.2697 22.6355 58.5831 22.5222 58.9502C22.0538 60.4677 24.1377 61.5453 25.5875 61.9942C28.8346 62.9934 31.9978 61.296 32.8047 58.6688C33.5474 56.2554 32.0246 54.5704 31.3905 53.9238L28.318 50.6359C26.9109 49.0667 23.8171 44.7011 25.3275 39.7959C25.9099 37.9097 27.1336 35.9023 28.9129 34.5736C32.6658 31.7772 36.7446 31.3177 40.6328 32.4345C44.411 33.5243 46.7148 35.6728 48.9567 37.7634C49.6973 38.4541 50.4311 39.1385 51.2092 39.7763C52.9618 34.6359 55.3913 29.5971 59.0479 25.3509Z" fill="inherit"/>
</svg>
