<svg width="100" height="100" viewBox="0 0 100 100" fill="none" xmlns="http://www.w3.org/2000/svg">
<g clip-path="url(#clip0_324_1413)">
<path d="M7.10741 49.9988C7.10741 66.9768 16.9744 81.6492 31.2822 88.6021L10.8211 32.5425C8.44107 37.877 7.10741 43.7803 7.10741 49.9988Z" fill="inherit"/>
<path d="M78.9585 47.8343C78.9585 42.5332 77.0544 38.8621 75.4212 36.0047C73.2468 32.4715 71.2088 29.4794 71.2088 25.9461C71.2088 22.0032 74.1993 18.3329 78.4117 18.3329C78.6019 18.3329 78.7822 18.3566 78.9675 18.3672C71.3361 11.3758 61.1688 7.10724 50.0016 7.10724C35.0163 7.10724 21.8324 14.7956 14.1626 26.4407C15.169 26.4709 16.1174 26.4922 16.923 26.4922C21.4096 26.4922 28.3546 25.9478 28.3546 25.9478C30.6668 25.8115 30.9394 29.2076 28.6296 29.481C28.6296 29.481 26.3059 29.7544 23.7202 29.8899L39.3405 76.3506L48.7276 48.1983L42.0446 29.8883C39.7347 29.7528 37.5465 29.4794 37.5465 29.4794C35.2351 29.3439 35.506 25.8098 37.8175 25.9461C37.8175 25.9461 44.9012 26.4905 49.1161 26.4905C53.6019 26.4905 60.5477 25.9461 60.5477 25.9461C62.8616 25.8098 63.1334 29.2059 60.8227 29.4794C60.8227 29.4794 58.4941 29.7528 55.9133 29.8883L71.4145 75.9971L75.6929 61.7002C77.5473 55.7675 78.9585 51.5062 78.9585 47.8343Z" fill="inherit"/>
<path d="M50.7542 53.7507L37.8844 91.147C41.7271 92.2765 45.7909 92.8944 50.0016 92.8944C54.9967 92.8944 59.787 92.0309 64.2458 90.463C64.1308 90.2794 64.0263 90.0843 63.9406 89.8721L50.7542 53.7507Z" fill="inherit"/>
<path d="M87.6396 29.4198C87.824 30.7861 87.9285 32.2527 87.9285 33.8304C87.9285 38.183 87.1156 43.076 84.667 49.194L71.5646 87.0751C84.3168 79.6389 92.8942 65.8236 92.8942 49.9996C92.895 42.5422 90.99 35.5297 87.6396 29.4198Z" fill="inherit"/>
<path d="M50.0016 0C22.4314 0 0 22.4293 0 49.9988C0 77.5716 22.4314 100 50.0016 100C77.571 100 100.006 77.5716 100.006 49.9988C100.005 22.4293 77.571 0 50.0016 0ZM50.0016 97.7082C23.6957 97.7082 2.29269 76.3057 2.29269 49.9988C2.29269 23.6935 23.6949 2.29263 50.0016 2.29263C76.3067 2.29263 97.7081 23.6935 97.7081 49.9988C97.7081 76.3057 76.3067 97.7082 50.0016 97.7082Z" fill="inherit"/>
</g>
</svg>
