<svg width="100" height="100" viewBox="0 0 100 100" fill="none" xmlns="http://www.w3.org/2000/svg">
<path d="M17.7083 0H82.2917C92.0833 0 100 8.11966 100 18.1624V81.8376C100 91.8803 92.0833 100 82.2917 100H17.7083C7.91667 100 0 91.8803 0 81.8376V18.1624C0 8.11966 7.91667 0 17.7083 0Z" fill="#470137"/>
<path d="M52.5833 26.2821L40.0833 47.4359L53.4167 69.8718C53.5 70.0427 53.5417 70.2137 53.5 70.3846C53.4583 70.5556 53.2917 70.4273 53.0417 70.4701H43.5C42.8333 70.4701 42.375 70.4274 42.0833 70C41.2083 68.2051 40.2917 66.453 39.4167 64.6581C38.5417 62.906 37.5833 61.1111 36.5833 59.2735C35.5833 57.4359 34.5833 55.5983 33.5833 53.7179H33.5C32.625 55.5556 31.6667 57.3932 30.7083 59.2308C29.75 61.0684 28.7917 62.906 27.875 64.7009C26.9167 66.4957 25.9583 68.3333 25 70.0855C24.8333 70.5128 24.5 70.5556 24.0417 70.5556H14.875C14.7083 70.5556 14.5833 70.641 14.5833 70.4274C14.5417 70.2564 14.5833 70.0855 14.6667 69.9573L27.625 48.1624L15 26.2393C14.875 26.0684 14.8333 25.8974 14.9167 25.812C15 25.6838 15.1667 25.641 15.3333 25.641H24.7917C25 25.641 25.2083 25.6838 25.375 25.7265C25.5417 25.812 25.6667 25.9402 25.7917 26.1111C26.5833 27.9487 27.5 29.7863 28.4583 31.6239C29.4583 33.4615 30.4167 35.2564 31.4583 37.0513C32.4583 38.8462 33.375 40.641 34.25 42.4786H34.3333C35.2083 40.5983 36.125 38.7607 37.0417 36.9658C37.9583 35.1709 38.9167 33.3761 39.875 31.5812C40.8333 29.7863 41.75 27.9487 42.6667 26.1966C42.7083 26.0256 42.7917 25.8547 42.9167 25.7692C43.0833 25.6838 43.25 25.641 43.4583 25.6838H52.25C52.4583 25.641 52.6667 25.7692 52.7083 25.9829C52.75 26.0256 52.6667 26.1966 52.5833 26.2821Z" fill="#FF61F6"/>
<path d="M71.8333 71.3675C68.75 71.4103 65.6667 70.7692 62.875 69.4445C60.25 68.2051 58.0833 66.1538 56.5833 63.6325C55.0417 61.0256 54.2917 57.7778 54.2917 53.8889C54.25 50.7265 55.0417 47.6068 56.5833 44.8718C58.1667 42.094 60.4583 39.7863 63.2083 38.2479C66.125 36.5812 69.625 35.7692 73.75 35.7692C73.9583 35.7692 74.25 35.7692 74.625 35.812C75 35.8547 75.4167 35.8547 75.9167 35.8974V22.3932C75.9167 22.094 76.0417 21.9231 76.3333 21.9231H84.7917C85 21.8803 85.1667 22.0513 85.2083 22.2222C85.2083 22.265 85.2083 22.3077 85.2083 22.3077V62.9915C85.2083 63.7607 85.25 64.6154 85.2917 65.5556C85.375 66.453 85.4167 67.3077 85.4583 68.0342C85.4583 68.3333 85.3333 68.5897 85.0417 68.718C82.875 69.6581 80.5833 70.3419 78.25 70.7692C76.125 71.1539 74 71.3675 71.8333 71.3675ZM75.9167 62.8205V44.0171C75.5417 43.9316 75.1667 43.8462 74.7917 43.8034C74.3333 43.7607 73.875 43.718 73.4167 43.718C71.7917 43.718 70.1667 44.0598 68.7083 44.8291C67.2917 45.5556 66.0833 46.6239 65.1667 47.9915C64.25 49.359 63.7917 51.1966 63.7917 53.4188C63.75 54.9145 64 56.4103 64.5 57.8205C64.9167 58.9744 65.5417 60 66.375 60.8547C67.1667 61.6239 68.125 62.2222 69.2083 62.5641C70.3333 62.9487 71.5 63.1197 72.6667 63.1197C73.2917 63.1197 73.875 63.0769 74.4167 63.0342C74.9583 63.0769 75.4167 62.9915 75.9167 62.8205Z" fill="#FF61F6"/>
</svg>
