<svg width="100" height="100" viewBox="0 0 100 100" fill="none" xmlns="http://www.w3.org/2000/svg">
<path d="M91.2753 77.0059C94.3133 77.0059 96.776 74.5431 96.776 71.5052C96.776 68.4673 94.3133 66.0045 91.2753 66.0045C88.2374 66.0045 85.7746 68.4673 85.7746 71.5052C85.7746 74.5431 88.2374 77.0059 91.2753 77.0059Z" fill="black"/>
<path d="M55.2998 22.1471C56.8676 20.1131 57.8345 17.6808 58.0911 15.1256C58.3477 12.5703 57.8836 9.99432 56.7515 7.68926C55.6193 5.38421 53.8644 3.44222 51.6853 2.08324C49.5063 0.724267 46.9903 0.00261204 44.4222 3.24193e-06C43.4989 -0.000621989 42.5777 0.0891896 41.6719 0.268158C38.5657 0.902194 35.774 2.58994 33.7693 5.04576C31.7646 7.50158 30.6699 10.5746 30.6705 13.7448V53.4562C30.6685 54.6786 30.2594 55.8655 29.5077 56.8294C28.7561 57.7934 27.7048 58.4796 26.5198 58.7795C25.3348 59.0795 24.0837 58.9763 22.9639 58.4861C21.8441 57.9959 20.9195 57.1466 20.3361 56.0725L13.3572 43.9985C13.0103 43.3464 12.5357 42.7708 11.9616 42.306C11.3875 41.8413 10.7257 41.497 10.0156 41.2935C9.30553 41.0901 8.56177 41.0318 7.82868 41.122C7.09558 41.2123 6.38818 41.4492 5.74864 41.8188C5.1091 42.1883 4.55054 42.6829 4.10627 43.2729C3.662 43.863 3.34111 44.5365 3.16276 45.2533C2.98441 45.9701 2.95225 46.7154 3.06818 47.4449C3.18412 48.1744 3.44578 48.873 3.83756 49.4992L30.6533 95.9764L31.3856 97.2415C31.99 98.2925 32.9247 99.1144 34.0444 99.5794C35.164 100.044 36.406 100.126 37.5771 99.8127C38.7482 99.4991 39.7829 98.8073 40.5203 97.8449C41.2577 96.8826 41.6565 95.7036 41.6547 94.4912V63.0377C44.4805 64.6724 47.6347 65.6579 50.8885 65.9226C54.1424 66.1873 57.4144 65.7246 60.4673 64.568C63.5201 63.4115 66.2774 61.5901 68.5391 59.2359C70.8009 56.8818 72.5104 54.0538 73.5438 50.957C74.5772 47.8603 74.9085 44.5724 74.5137 41.3318C74.119 38.0911 73.008 34.9789 71.2615 32.2208C69.5149 29.4627 67.1764 27.1278 64.4157 25.3855C61.6549 23.6431 58.541 22.5369 55.2998 22.1471ZM36.1677 13.7482C36.1657 11.9964 36.7214 10.2893 37.7543 8.87425C38.7871 7.45922 40.2436 6.40967 41.9127 5.87758C43.5819 5.34549 45.377 5.35849 47.0383 5.91468C48.6995 6.47088 50.1407 7.54141 51.1529 8.97124C52.1652 10.4011 52.6961 12.116 52.6687 13.8677C52.6414 15.6194 52.0572 17.3169 51.0007 18.7144C49.9443 20.1119 48.4705 21.1369 46.7926 21.641C45.1148 22.145 43.3201 22.1019 41.6684 21.5179C40.0613 20.9497 38.6695 19.8977 37.6846 18.5064C36.6996 17.1151 36.1697 15.4529 36.1677 13.7482ZM52.6698 57.7536C49.9499 57.7536 47.2912 56.9471 45.0297 55.436C42.7683 53.925 41.0057 51.7773 39.9649 49.2645C38.924 46.7517 38.6517 43.9867 39.1823 41.3191C39.7129 38.6515 41.0226 36.2012 42.9459 34.278C44.8691 32.3548 47.3194 31.0451 49.9869 30.5145C52.6545 29.9839 55.4195 30.2562 57.9323 31.297C60.4451 32.3379 62.5928 34.1005 64.1039 36.3619C65.6149 38.6234 66.4214 41.2821 66.4214 44.0019C66.4223 45.8073 66.0671 47.5951 65.3762 49.2629C64.6852 50.9308 63.672 52.446 62.3946 53.7218C61.1173 54.9975 59.6008 56.0088 57.9321 56.6977C56.2633 57.3866 54.4751 57.7396 52.6698 57.7364V57.7536Z" fill="inherit"/>
</svg>
