<svg width="0" height="0" class="hidden">
  <symbol fill="none" xmlns="http://www.w3.org/2000/svg" viewBox="0 0 100 100" id="adobe">
    <g clip-path="url(#clip0_324_1431)">
      <path d="M100 48.2094V51.4992C99.9687 51.6777 99.9292 51.8528 99.9086 52.0305C99.7383 53.4616 99.628 54.9017 99.3926 56.3221C98.6239 60.9385 96.9621 65.2292 94.493 69.1967C90.7432 75.2204 85.6741 79.8138 79.3037 82.9506C75.627 84.7697 71.6628 85.9387 67.5868 86.4057C66.6815 86.5102 65.777 86.6039 64.8716 86.7035H29.7407C29.5638 86.6706 29.3877 86.6179 29.2091 86.6072C25.6667 86.3843 22.2584 85.5775 19.0099 84.1571C11.9374 81.0647 6.6642 76.0527 3.21235 69.154C1.68703 66.111 0.699916 62.8274 0.29465 59.4482C0.195062 58.6266 0.0979424 57.8058 0 56.985V53.793C0.0337449 53.6162 0.0855967 53.4394 0.0962963 53.2617C0.279835 50.1948 0.909465 47.2167 2.01811 44.3545C5.00165 36.6531 10.2025 30.9412 17.5934 27.2442C21.428 25.3255 25.5152 24.3171 29.7901 24.0934C31.8831 23.9849 33.9745 24.1017 36.0551 24.3805C36.2436 24.406 36.5152 24.3221 36.6461 24.188C39.6379 21.1342 43.0444 18.6537 46.8856 16.7736C50.6115 14.9502 54.5325 13.7749 58.6601 13.3045C59.6313 13.1935 60.6049 13.1022 61.5778 13.0018H64.5728C64.7687 13.0323 64.9654 13.0668 65.1613 13.0898C66.6453 13.2625 68.1374 13.3711 69.6074 13.617C74.1934 14.386 78.4626 16.0309 82.4132 18.4744C88.4708 22.2215 93.0872 27.2936 96.2411 33.6791C98.0652 37.3549 99.2362 41.3194 99.7021 45.3958C99.8091 46.3342 99.9004 47.2726 100 48.2094ZM44.0864 26.9218C44.1465 27.0008 44.1613 27.0378 44.1868 27.0501C46.2436 28.0632 48.2094 29.2511 50.0625 30.6007C50.1794 30.6854 50.4691 30.65 50.6107 30.5612C55.7037 27.3364 61.2247 26.2236 67.1556 27.2747C72.9671 28.3044 77.6963 31.206 81.3095 35.8405C85.4008 41.0853 86.9605 47.016 85.8313 53.6145C85.0741 58.0369 83.3012 62.0044 80.2881 65.3279C74.7901 71.3869 67.9053 73.8929 59.8008 72.832C54.8115 72.1789 50.5045 70.0282 46.9399 66.4284C42.3646 61.8103 37.7597 57.2226 33.1712 52.6169C32.5597 52.0034 31.879 51.5099 30.9984 51.4021C29.4601 51.2138 28.0642 51.9812 27.4 53.362C26.8074 54.5949 26.884 55.9849 28.1695 57.2481C33.2848 62.2659 38.3547 67.3298 43.4642 72.3525C44.3387 73.2165 45.2766 74.014 46.27 74.7384C50.0025 77.4468 54.2107 78.9444 58.7679 79.5473C62.3449 80.0194 65.8938 79.9182 69.4156 79.127C76.1333 77.6195 81.6979 74.1931 86.0807 68.9064C89.6996 64.5375 91.8881 59.5173 92.651 53.881C93.0932 50.667 93.0008 47.402 92.3778 44.218C91.3613 39.0119 89.1572 34.3535 85.6255 30.3885C78.8872 22.8277 70.4099 19.4523 60.3218 20.2057C56.4412 20.4952 52.7704 21.6343 49.316 23.4412C47.452 24.409 45.6985 25.5761 44.0864 26.9218ZM41.6181 79.7036C41.4793 79.575 41.341 79.4459 41.2033 79.3162C39.1119 77.3431 37.0091 75.3824 34.9424 73.3838C34.5424 72.9973 34.1745 72.8089 33.6082 72.8221C31.5152 72.8731 29.4206 72.8821 27.358 72.4166C17.1029 70.099 11.1481 58.9572 14.9276 49.1536C17.9086 41.4233 26.1613 36.7156 34.2996 38.1672C37.9473 38.8178 41.149 40.3607 43.777 43.0691C46.9819 46.3753 50.2823 49.587 53.5218 52.8595C54.2593 53.6047 55.1062 53.9443 56.1276 53.7988C57.4477 53.6104 58.4988 52.9821 58.9761 51.6884C59.4436 50.4152 59.2173 49.2095 58.2527 48.2332C54.8527 44.7913 51.5333 41.263 47.9959 37.9674C41.135 31.5728 33.0444 29.6713 24.0963 32.3903C12.0609 36.0445 5.01728 48.4635 7.76708 60.7181C10.2733 71.8837 20.0453 79.72 31.4798 79.7299C34.6724 79.7332 37.8658 79.7315 41.0584 79.7299C41.2165 79.7299 41.3745 79.7159 41.6181 79.7036Z" fill="#DA1F26"></path>
    </g>
    <defs>
      <clipPath id="clip0_324_1431">
        <rect width="100" height="100" fill="white"></rect>
      </clipPath>
    </defs>
  </symbol>
  <symbol fill="none" xmlns="http://www.w3.org/2000/svg" viewBox="0 0 100 100" id="arrow-down">
    <path d="M44.7218 5.5C44.7218 2.46244 47.1843 0 50.2218 0C53.2594 0 55.7218 2.46243 55.7218 5.5V94.5C55.7218 97.5376 53.2594 100 50.2218 100C47.1843 100 44.7218 97.5376 44.7218 94.5V5.5Z" fill="black"></path>
    <path d="M18.6109 70.6674C16.463 68.5195 16.463 65.0371 18.6109 62.8892C20.7588 60.7413 24.2412 60.7413 26.3891 62.8892L53.9663 90.4664C56.1141 92.6143 56.1141 96.0967 53.9663 98.2446C51.8184 100.392 48.336 100.392 46.1881 98.2446L18.6109 70.6674Z" fill="black"></path>
    <path d="M46.6109 90.4664C44.463 92.6143 44.463 96.0967 46.6109 98.2446C48.7588 100.392 52.2412 100.392 54.3891 98.2446L81.9662 70.6674C84.1141 68.5195 84.1141 65.0371 81.9662 62.8892C79.8184 60.7413 76.336 60.7413 74.1881 62.8892L46.6109 90.4664Z" fill="black"></path>
  </symbol>
  <symbol fill="none" xmlns="http://www.w3.org/2000/svg" viewBox="0 0 100 100" id="arrow-left">
    <path d="M94.5 44.7218C97.5376 44.7218 100 47.1843 100 50.2218C100 53.2594 97.5376 55.7218 94.5 55.7218L5.5 55.7218C2.46243 55.7218 -1.58495e-06 53.2594 -1.45217e-06 50.2218C-1.3194e-06 47.1843 2.46243 44.7218 5.5 44.7218L94.5 44.7218Z" fill="black"></path>
    <path d="M29.3326 18.6109C31.4805 16.463 34.9629 16.463 37.1108 18.6109C39.2587 20.7588 39.2587 24.2412 37.1108 26.3891L9.5336 53.9662C7.38571 56.1141 3.90331 56.1141 1.75543 53.9662C-0.392453 51.8184 -0.392453 48.336 1.75543 46.1881L29.3326 18.6109Z" fill="black"></path>
    <path d="M9.53362 46.6109C7.38574 44.463 3.90333 44.463 1.75545 46.6109C-0.392437 48.7588 -0.392438 52.2412 1.75545 54.3891L29.3326 81.9662C31.4805 84.1141 34.9629 84.1141 37.1108 81.9662C39.2587 79.8184 39.2587 76.336 37.1108 74.1881L9.53362 46.6109Z" fill="black"></path>
  </symbol>
  <symbol fill="none" xmlns="http://www.w3.org/2000/svg" viewBox="0 0 100 100" id="arrow-up">
    <path d="M55.2782 94.5C55.2782 97.5376 52.8157 100 49.7782 100C46.7406 100 44.2782 97.5376 44.2782 94.5L44.2782 5.5C44.2782 2.46243 46.7406 -3.1699e-06 49.7782 -2.90434e-06C52.8158 -2.63879e-06 55.2782 2.46243 55.2782 5.5L55.2782 94.5Z" fill="black"></path>
    <path d="M81.3891 29.3326C83.537 31.4805 83.537 34.9629 81.3891 37.1108C79.2412 39.2587 75.7588 39.2587 73.6109 37.1108L46.0338 9.5336C43.8859 7.38571 43.8859 3.90331 46.0338 1.75543C48.1816 -0.392454 51.664 -0.392454 53.8119 1.75543L81.3891 29.3326Z" fill="black"></path>
    <path d="M53.3891 9.53362C55.537 7.38574 55.537 3.90333 53.3891 1.75544C51.2412 -0.392439 47.7588 -0.392439 45.6109 1.75544L18.0338 29.3326C15.8859 31.4805 15.8859 34.9629 18.0338 37.1108C20.1816 39.2587 23.664 39.2587 25.8119 37.1108L53.3891 9.53362Z" fill="black"></path>
  </symbol>
  <symbol fill="none" xmlns="http://www.w3.org/2000/svg" viewBox="0 0 100 100" id="css">
    <path d="M85.8465 19.6523L79.3922 91.9568L50.3799 100L21.4475 91.9682L15 19.6523H85.8465Z" fill="#264DE4"></path>
    <path d="M73.8662 87.3527L79.3818 25.5652H50.4229V93.8521L73.8662 87.3527Z" fill="#2965F1"></path>
    <path d="M29.7803 52.3861L30.5752 61.2552H50.4229V52.3861H29.7803Z" fill="#EBEBEB"></path>
    <path d="M50.4234 34.4346H50.3928H28.1836L28.9898 43.3039H50.4234V34.4346Z" fill="#EBEBEB"></path>
    <path d="M50.423 84.6483V75.4205L50.3842 75.4309L40.5064 72.7637L39.875 65.6901H30.9717L32.2143 79.616L50.3822 84.6596L50.423 84.6483Z" fill="#EBEBEB"></path>
    <path d="M31.6729 0H42.415V4.49219H36.165V8.98438H42.415V13.4766H31.6729V0Z" fill="black"></path>
    <path d="M44.5635 0H55.3057V3.90625H49.0557V4.6875H55.3057V13.6719H44.5635V9.57031H50.8135V8.78906H44.5635V0Z" fill="black"></path>
    <path d="M57.4541 0H68.1963V3.90625H61.9463V4.6875H68.1963V13.6719H57.4541V9.57031H63.7041V8.78906H57.4541V0Z" fill="black"></path>
    <path d="M61.3141 61.2553L60.2846 72.758L50.3926 75.4279V84.6553L68.575 79.616L70.7926 54.7678L71.009 52.3861L72.6102 34.4346H50.3928L50.3926 43.3039H62.8902L62.0832 52.3861H50.3926V61.2553H61.3141Z" fill="white"></path>
  </symbol>
  <symbol fill="none" xmlns="http://www.w3.org/2000/svg" viewBox="0 0 100 100" id="emakina">
    <path d="M27 0H72.4545V9.09091H27V0Z" fill="black"></path>
    <path d="M72.4545 54.5455L72.4545 100H63.3636L63.3636 54.5455H72.4545Z" fill="black"></path>
    <path d="M27 18.1818H72.4545V27.2727H27V18.1818Z" fill="black"></path>
    <path d="M54.2727 54.5455L54.2727 100H45.1818L45.1818 54.5455H54.2727Z" fill="black"></path>
    <path d="M27 36.3636H72.4545V45.4545H27V36.3636Z" fill="black"></path>
    <path d="M36.0909 54.5455L36.0909 100H27L27 54.5455H36.0909Z" fill="black"></path>
  </symbol>
  <symbol fill="none" xmlns="http://www.w3.org/2000/svg" viewBox="0 0 100 100" id="external-link">
    <path d="M65 78C65 79.6569 63.6569 81 62 81H14C12.3431 81 11 79.6569 11 78V30C11 28.3431 12.3431 27 14 27H53C54.6569 27 56 25.6569 56 24V19C56 17.3431 54.6569 16 53 16H10C4.47715 16 0 20.4772 0 26V82C0 87.5228 4.47715 92 10 92H66C71.5228 92 76 87.5228 76 82V59C76 57.3431 74.6569 56 73 56H68C66.3431 56 65 57.3431 65 59V78Z" fill="black"></path>
    <path d="M44.1819 60.4577C43.0103 59.2862 43.0103 57.3867 44.1819 56.2151L80.8624 19.5346C81.9995 18.3974 83.8311 18.3592 85.0147 19.4479L88.6979 22.8358C89.9535 23.9907 89.9945 25.9588 88.7882 27.1651L51.96 63.9933C50.7885 65.1649 48.889 65.1649 47.7174 63.9933L44.1819 60.4577Z" fill="black"></path>
    <path d="M94.8787 37.8787C96.7686 39.7686 100 38.4301 100 35.7574V11C100 9.34315 98.6569 8 97 8H72.2426C69.5699 8 68.2314 11.2314 70.1213 13.1213L94.8787 37.8787Z" fill="black"></path>
  </symbol>
  <symbol fill="none" xmlns="http://www.w3.org/2000/svg" viewBox="0 0 100 100" id="figma">
    <path d="M33.5 100C42.608 100 50 92.5333 50 83.3333V66.6667H33.5C24.392 66.6667 17 74.1333 17 83.3333C17 92.5333 24.392 100 33.5 100Z" fill="#0ACF83"></path>
    <path d="M17 50C17 40.8 24.392 33.3333 33.5 33.3333H50V66.6667H33.5C24.392 66.6667 17 59.2 17 50Z" fill="#A259FF"></path>
    <path d="M17 16.6667C17 7.46667 24.392 0 33.5 0H50V33.3333H33.5C24.392 33.3333 17 25.8667 17 16.6667Z" fill="#F24E1E"></path>
    <path d="M50 0H66.5C75.608 0 83 7.46667 83 16.6667C83 25.8667 75.608 33.3333 66.5 33.3333L50 33.3333V0Z" fill="#FF7262"></path>
    <path d="M83 50C83 59.2 75.608 66.6667 66.5 66.6667C57.392 66.6667 50 59.2 50 50C50 40.8 57.392 33.3333 66.5 33.3333C75.608 33.3333 83 40.8 83 50Z" fill="#1ABCFE"></path>
  </symbol>
  <symbol fill="none" xmlns="http://www.w3.org/2000/svg" viewBox="0 0 100 100" id="Frame 22">
    <path d="M5.5 55.2782C2.46244 55.2782 3.59944e-07 52.8157 3.96166e-07 49.7782C4.32389e-07 46.7406 2.46243 44.2782 5.5 44.2782L94.5 44.2782C97.5376 44.2782 100 46.7406 100 49.7782C100 52.8157 97.5376 55.2782 94.5 55.2782L5.5 55.2782Z" fill="black"></path>
    <path d="M70.6674 81.3891C68.5195 83.537 65.0371 83.537 62.8892 81.3891C60.7413 79.2412 60.7413 75.7588 62.8892 73.6109L90.4664 46.0337C92.6143 43.8859 96.0967 43.8859 98.2446 46.0337C100.392 48.1816 100.392 51.664 98.2446 53.8119L70.6674 81.3891Z" fill="black"></path>
    <path d="M90.4664 53.3891C92.6143 55.537 96.0967 55.537 98.2446 53.3891C100.392 51.2412 100.392 47.7588 98.2446 45.6109L70.6674 18.0338C68.5195 15.8859 65.0371 15.8859 62.8892 18.0338C60.7413 20.1816 60.7413 23.664 62.8892 25.8119L90.4664 53.3891Z" fill="black"></path>
  </symbol>
  <symbol fill="none" xmlns="http://www.w3.org/2000/svg" viewBox="0 0 100 100" id="html">
    <path d="M21.1719 0H25.6641V4.45312H29.8047V0H34.2969V13.4766H29.8047V8.98438H25.7031V13.4766H21.1719M40.2344 4.49219H36.2695V0H48.7109V4.49219H44.7266V13.4766H40.2344M50.6836 0H55.3906L58.2812 4.74609L61.1719 0H65.8789V13.4766H61.3867V6.79688L58.2422 11.6406L55.0977 6.79688V13.4766H50.6836M68.1055 0H72.5977V9.02344H78.9648V13.4766H68.1055" fill="black"></path>
    <path d="M21.0156 91.9922L14.5703 19.6484H85.4297L78.9844 91.9531L49.9414 100" fill="#E44D26"></path>
    <path d="M50 93.8477V25.5859H78.9648L73.4375 87.3047" fill="#F16529"></path>
    <path d="M27.7344 34.4336H50V43.3008H37.4609L38.2812 52.3828H50V61.2305H30.1562M30.5469 65.6836H39.4531L40.0781 72.7734L50 75.4297V84.6875L31.7969 79.6094" fill="#EBEBEB"></path>
    <path d="M72.1875 34.4336H49.9609V43.3008H71.3672M70.5664 52.3828H49.9609V61.25H60.8984L59.8633 72.7734L49.9609 75.4297V84.6484L68.125 79.6094" fill="white"></path>
  </symbol>
  <symbol fill="none" xmlns="http://www.w3.org/2000/svg" viewBox="0 0 100 100" id="javascript">
    <g clip-path="url(#clip0_324_1422)">
      <path d="M100 0H0V100H100V0Z" fill="#F7DF1E"></path>
      <path d="M67.1746 78.1254C69.1889 81.4143 71.8095 83.8317 76.4445 83.8317C80.3381 83.8317 82.8254 81.8857 82.8254 79.1968C82.8254 75.9746 80.2698 74.8333 75.9841 72.9587L73.6349 71.9508C66.854 69.0619 62.3492 65.4429 62.3492 57.7921C62.3492 50.7444 67.7191 45.3794 76.1111 45.3794C82.0857 45.3794 86.381 47.4587 89.4762 52.9032L82.1587 57.6016C80.5476 54.7127 78.8095 53.5746 76.1111 53.5746C73.3587 53.5746 71.6143 55.3206 71.6143 57.6016C71.6143 60.4206 73.3603 61.5619 77.3921 63.3079L79.7413 64.3143C87.7254 67.7381 92.2333 71.2286 92.2333 79.0762C92.2333 87.5365 85.5873 92.1714 76.6619 92.1714C67.9349 92.1714 62.2968 88.0127 59.5381 82.5619L67.1746 78.1254ZM33.9794 78.9397C35.4556 81.5587 36.7984 83.773 40.027 83.773C43.1143 83.773 45.0619 82.5651 45.0619 77.8683V45.9159H54.4587V77.9952C54.4587 87.7254 48.754 92.154 40.427 92.154C32.9032 92.154 28.546 88.2603 26.3302 83.5706L33.9794 78.9397Z" fill="black"></path>
    </g>
    <defs>
      <clipPath id="clip0_324_1422">
        <rect width="100" height="100" fill="white"></rect>
      </clipPath>
    </defs>
  </symbol>
  <symbol fill="none" xmlns="http://www.w3.org/2000/svg" viewBox="0 0 100 100" id="language">
    <path fill-rule="evenodd" clip-rule="evenodd" d="M12.5793 35.5856C10.8551 40.0588 9.90991 44.919 9.90991 50C9.90991 51.8331 10.0329 53.6375 10.2712 55.4054H22.6747C22.574 53.6267 22.5225 51.823 22.5225 50C22.5225 45.0114 22.9077 40.1677 23.6346 35.5856H12.5793ZM18.1298 25.6757H25.855C26.8999 22.1463 28.1715 18.8741 29.6423 15.9324C29.7559 15.7053 29.8713 15.4791 29.9884 15.2539C25.3779 17.9151 21.3465 21.4674 18.1298 25.6757ZM50 0C22.3858 0 0 22.3858 0 50C0 77.6142 22.3858 100 50 100C77.6142 100 100 77.6142 100 50C100 22.3858 77.6142 0 50 0ZM50 9.90991C46.6685 9.90991 42.3184 12.7395 38.506 20.3643C37.6946 21.9871 36.9447 23.764 36.2689 25.6757H63.7311C63.0553 23.764 62.3054 21.9871 61.494 20.3643C57.6816 12.7395 53.3315 9.90991 50 9.90991ZM74.145 25.6757C73.1001 22.1463 71.8285 18.8741 70.3577 15.9324C70.2441 15.7053 70.1287 15.4791 70.0116 15.2539C74.6221 17.9151 78.6535 21.4674 81.8702 25.6757H74.145ZM66.3149 35.5856H33.6851C32.8809 40.0411 32.4324 44.8935 32.4324 50C32.4324 51.8369 32.4905 53.6409 32.6022 55.4054H67.3978C67.5095 53.6409 67.5676 51.8369 67.5676 50C67.5676 44.8935 67.1191 40.0411 66.3149 35.5856ZM77.3253 55.4054C77.426 53.6267 77.4775 51.823 77.4775 50C77.4775 45.0114 77.0923 40.1677 76.3654 35.5856H87.4207C89.1449 40.0588 90.0901 44.919 90.0901 50C90.0901 51.8331 89.9671 53.6375 89.7288 55.4054H77.3253ZM66.1464 65.3153H33.8536C34.9186 70.817 36.5298 75.6834 38.506 79.6357C42.3184 87.2605 46.6685 90.0901 50 90.0901C53.3315 90.0901 57.6816 87.2605 61.494 79.6357C63.4702 75.6834 65.0814 70.817 66.1464 65.3153ZM70.0116 84.7461C70.1287 84.5209 70.2441 84.2947 70.3577 84.0676C73.0156 78.7517 75.0227 72.3564 76.2176 65.3153H87.0607C83.6673 73.5177 77.6302 80.3487 70.0116 84.7461ZM29.9884 84.746C29.8713 84.5209 29.7559 84.2947 29.6423 84.0676C26.9844 78.7517 24.9773 72.3564 23.7824 65.3153H12.9393C16.3326 73.5177 22.3698 80.3487 29.9884 84.746Z" fill="black"></path>
  </symbol>
  <symbol fill="none" xmlns="http://www.w3.org/2000/svg" viewBox="0 0 100 100" id="laniche">
    <path d="M79.8267 95.7784V44.0633C79.8267 24.8021 73.75 11.0818 61.8608 4.48549C81.6761 5.80475 92.7727 20.0528 92.7727 44.3272V95.7784H79.8267ZM21.1733 44.0633V95.7784H8.22727V44.3272C8.22727 20.0528 19.3239 5.80475 39.4034 4.48549C27.25 11.0818 21.1733 24.8021 21.1733 44.0633ZM59.2187 0C56.0483 0 53.4063 0.263852 50.5 0.791557C47.858 0.263852 44.9517 0 41.7812 0C16.4176 0 4 16.3588 4 44.0633V100H25.4006V44.3272C25.4006 22.6913 34.1193 8.97098 50.5 5.27704C66.6165 8.97098 75.5994 22.4274 75.5994 44.3272V100H97V44.0633C97 16.3588 84.5824 0 59.2187 0Z" fill="black"></path>
  </symbol>
  <symbol fill="none" xmlns="http://www.w3.org/2000/svg" viewBox="0 0 100 100" id="logo">
    <g clip-path="url(#clip0_286_591)">
      <path d="M91.5679 77.0622C94.6012 77.0622 97.0603 74.6031 97.0603 71.5698C97.0603 68.5364 94.6012 66.0774 91.5679 66.0774C88.5345 66.0774 86.0755 68.5364 86.0755 71.5698C86.0755 74.6031 88.5345 77.0622 91.5679 77.0622Z" fill="black"></path>
      <path d="M55.6466 22.2861C57.2121 20.2553 58.1776 17.8266 58.4337 15.2752C58.6899 12.7239 58.2266 10.1517 57.0961 7.85015C55.9657 5.54857 54.2134 3.60951 52.0376 2.25258C49.8619 0.895659 47.3497 0.175093 44.7855 0.172489C43.8635 0.171864 42.9437 0.26154 42.0393 0.440239C38.9378 1.07332 36.1504 2.75852 34.1487 5.21063C32.1469 7.66274 31.0539 10.7311 31.0545 13.8965V53.548C31.0525 54.7686 30.644 55.9536 29.8935 56.9162C29.143 57.8787 28.0933 58.5638 26.9101 58.8633C25.7269 59.1629 24.4776 59.0598 23.3596 58.5703C22.2415 58.0808 21.3183 57.2329 20.7358 56.1603L13.7673 44.1046C13.421 43.4534 12.9471 42.8787 12.3738 42.4147C11.8006 41.9507 11.1398 41.6068 10.4308 41.4037C9.7218 41.2006 8.97916 41.1424 8.24717 41.2325C7.51518 41.3226 6.80884 41.5592 6.17027 41.9281C5.5317 42.2971 4.97398 42.7909 4.53038 43.3801C4.08678 43.9693 3.76638 44.6418 3.5883 45.3575C3.41022 46.0732 3.3781 46.8174 3.49386 47.5458C3.60962 48.2741 3.87088 48.9717 4.26207 49.597L31.0374 96.0041L31.7686 97.2673C32.372 98.3167 33.3053 99.1373 34.4233 99.6016C35.5413 100.066 36.7813 100.148 37.9507 99.8346C39.12 99.5214 40.1531 98.8307 40.8894 97.8698C41.6257 96.9089 42.0239 95.7317 42.0221 94.5211V63.115C44.8437 64.7473 47.9931 65.7313 51.242 65.9956C54.491 66.2599 57.7581 65.7979 60.8063 64.6431C63.8546 63.4883 66.6077 61.6697 68.866 59.319C71.1244 56.9684 72.8313 54.1447 73.8631 51.0526C74.8949 47.9606 75.2258 44.6776 74.8316 41.4419C74.4375 38.2061 73.3282 35.0986 71.5842 32.3447C69.8403 29.5907 67.5054 27.2594 64.7488 25.5196C61.9922 23.7799 58.883 22.6754 55.6466 22.2861ZM36.5435 13.9C36.5415 12.1507 37.0963 10.4462 38.1276 9.03335C39.1589 7.62045 40.6132 6.57249 42.2798 6.0412C43.9464 5.50991 45.7389 5.52289 47.3976 6.07824C49.0564 6.6336 50.4953 7.70251 51.5061 9.13019C52.5168 10.5579 53.0469 12.2702 53.0196 14.0192C52.9923 15.7683 52.4089 17.4632 51.3541 18.8586C50.2993 20.2541 48.8276 21.2775 47.1523 21.7808C45.4771 22.2841 43.6851 22.241 42.0359 21.658C40.4311 21.0906 39.0415 20.0401 38.058 18.6509C37.0745 17.2618 36.5454 15.6021 36.5435 13.9ZM53.0206 57.8389C50.3049 57.8389 47.6501 57.0336 45.3921 55.5249C43.1341 54.0161 41.3741 51.8716 40.3349 49.3626C39.2956 46.8536 39.0237 44.0928 39.5535 41.4292C40.0833 38.7657 41.3911 36.3191 43.3114 34.3988C45.2317 32.4785 47.6783 31.1707 50.3418 30.6409C53.0054 30.1111 55.7662 30.383 58.2752 31.4223C60.7842 32.4616 62.9287 34.2215 64.4374 36.4795C65.9462 38.7376 66.7515 41.3923 66.7515 44.108C66.7524 45.9106 66.3978 47.6957 65.7078 49.3611C65.0179 51.0264 64.0062 52.5394 62.7308 53.8132C61.4554 55.087 59.9412 56.0968 58.275 56.7847C56.6087 57.4725 54.8232 57.8249 53.0206 57.8218V57.8389Z" fill="black"></path>
    </g>
    <defs>
      <clipPath id="clip0_286_591">
        <rect width="100" height="100" fill="white"></rect>
      </clipPath>
    </defs>
  </symbol>
  <symbol fill="none" xmlns="http://www.w3.org/2000/svg" viewBox="0 0 100 100" id="moon">
    <path fill-rule="evenodd" clip-rule="evenodd" d="M40.9388 33.5009C35.0063 36.8449 31 43.2046 31 50.5C31 61.2696 39.7304 70 50.5 70C59.5114 70 67.0951 63.8874 69.3311 55.5823C66.7358 56.7935 63.8406 57.4706 60.7941 57.4706C49.6347 57.4706 40.5882 48.4241 40.5882 37.2647C40.5882 35.9788 40.7087 34.7206 40.9388 33.5009ZM20 50.5C20 33.6553 33.6553 20 50.5 20C53.4339 20 55.4797 21.991 56.1896 24.086C56.877 26.1146 56.5033 28.6996 54.5576 30.493C52.7245 32.1827 51.5882 34.5869 51.5882 37.2647C51.5882 42.349 55.7099 46.4706 60.7941 46.4706C62.9023 46.4706 64.8309 45.7686 66.3806 44.5828C68.7864 42.7418 71.9054 42.1952 74.5651 42.7771C75.9533 43.0808 77.5408 43.7647 78.8398 45.1057C80.2224 46.5332 81 48.432 81 50.5C81 67.3447 67.3447 81 50.5 81C33.6553 81 20 67.3447 20 50.5Z" fill="black"></path>
  </symbol>
  <symbol fill="none" xmlns="http://www.w3.org/2000/svg" viewBox="0 0 100 100" id="proximus">
    <path d="M90.842 33.0382C92.1561 32.0581 99.35 26.2444 99.9958 18.0027C100.046 15.6887 99.64 13.3876 98.8008 11.2306C97.9616 9.07366 96.7057 7.1032 95.1048 5.43182C93.504 3.76044 91.5896 2.42088 89.4709 1.48966C87.3523 0.558444 85.071 0.0538241 82.7573 0.0046273H82.0446C73.7817 0.628322 67.9909 7.84537 66.9887 9.15958C62.106 15.79 58.8209 23.4589 57.3895 31.5681C52.4923 32.0135 47.5648 32.0135 42.6676 31.5681C41.2107 23.4762 37.9194 15.8258 33.0461 9.20413C32.0662 7.88992 26.2532 0.672872 17.9902 0.0046273C15.6732 -0.0485576 13.3686 0.357179 11.209 1.19847C9.0494 2.03977 7.07755 3.3 5.40697 4.90662C3.73639 6.51323 2.40008 8.43447 1.47498 10.5597C0.549889 12.685 0.0542844 14.9723 0.0167081 17.2899C-0.00556937 17.527 -0.00556937 17.7656 0.0167081 18.0027C0.640325 26.2666 7.83419 32.0581 9.17051 33.0605C15.8001 37.9437 23.468 41.2293 31.5762 42.6609C32.0216 47.5587 32.0216 52.4868 31.5762 57.3846C23.4817 58.8294 15.8295 62.1223 9.21506 67.0073C7.87873 67.9874 0.684869 73.6898 0.0612522 82.0428C0.011029 84.3546 0.41744 86.6535 1.25719 88.808C2.09695 90.9624 3.35354 92.9299 4.95495 94.5977C6.55636 96.2655 8.47111 97.6009 10.5895 98.5273C12.7078 99.4537 14.9882 99.9529 17.2998 99.9963H17.9902C26.2532 99.3726 32.0439 92.1556 33.0461 90.8414C37.9288 84.211 41.2139 76.5421 42.6454 68.4329C47.5425 67.9875 52.47 67.9875 57.3672 68.4329C58.8053 76.544 62.0981 84.213 66.9887 90.8414C67.9687 92.1556 73.6703 99.3504 82.0223 99.9963C84.333 100.044 86.6304 99.6351 88.7833 98.7942C90.9361 97.9533 92.9022 96.6964 94.5692 95.0953C96.2362 93.4943 97.5715 91.5805 98.4988 89.4632C99.4261 87.3459 99.9273 85.0666 99.9736 82.7556C99.9959 82.5185 99.9959 82.2799 99.9736 82.0428C99.35 73.7789 92.1561 67.9874 90.8198 66.985C84.1902 62.1018 76.5223 58.8162 68.4141 57.3846C68.1914 54.9789 68.08 52.5064 68.08 50.0116C68.08 47.5168 68.2137 45.0443 68.4141 42.6609C76.5304 41.2205 84.2052 37.9276 90.842 33.0382ZM76.8329 16.9558L77.0111 16.733C78.4823 14.6903 80.602 13.2064 83.0246 12.5231C83.3809 12.5231 84.3609 12.5231 85.9867 14.06C87.6126 15.597 87.5235 16.6439 87.5012 17.0226C86.8278 19.4501 85.342 21.5731 83.2918 23.0368L83.0691 23.1927C79.4361 25.8974 75.3256 27.8925 70.9531 29.0733C72.1388 24.7021 74.1331 20.592 76.8329 16.9558ZM29.0817 29.0733C24.7122 27.8957 20.6024 25.9086 16.9657 23.215L16.743 23.0368C14.7006 21.5655 13.2168 19.4455 12.5336 17.0226C12.5336 16.6662 12.5336 15.6861 14.0704 14.06C15.6071 12.434 16.6539 12.5231 17.0325 12.5454C19.4551 13.2286 21.5748 14.7126 23.046 16.7553L23.2019 16.978C25.9062 20.6115 27.901 24.7225 29.0817 29.0955V29.0733ZM23.2019 83.0897L23.046 83.3125C21.5814 85.3572 19.4581 86.8358 17.0325 87.5001C16.6539 87.5001 15.6739 87.5001 14.0704 85.9855C12.4668 84.4708 12.5336 83.4016 12.5559 83.0229C13.2332 80.6032 14.7089 78.4836 16.743 77.0087L16.9657 76.8528C20.604 74.1567 24.7128 72.1624 29.0817 70.9722C27.9043 75.3423 25.9174 79.4526 23.2242 83.0897H23.2019ZM55.6968 55.6917C53.8259 55.5803 51.9105 55.5135 49.9729 55.5135C48.0352 55.5135 46.1421 55.5135 44.2712 55.6917C44.3826 53.8206 44.4494 51.905 44.4494 49.9671C44.4494 48.0292 44.4494 46.1358 44.2712 44.2647C48.0758 44.5097 51.8922 44.5097 55.6968 44.2647C55.6968 46.1358 55.5409 48.0514 55.5186 49.9893C55.4963 51.9272 55.6968 53.8652 55.6968 55.6917ZM70.9308 70.9277C75.3021 72.1007 79.4126 74.0882 83.0468 76.786L83.2696 76.9642C85.3197 78.4279 86.8056 80.5508 87.479 82.9784C87.479 83.357 87.479 84.3371 85.9645 85.9409C84.45 87.5447 83.3586 87.4779 83.0023 87.4556C80.5783 86.7879 78.456 85.31 76.9888 83.2679L76.8107 83.0452C74.1219 79.4053 72.1354 75.2959 70.9531 70.9277H70.9308Z" fill="black"></path>
  </symbol>
  <symbol fill="none" xmlns="http://www.w3.org/2000/svg" viewBox="0 0 100 100" id="react">
    <path fill-rule="evenodd" clip-rule="evenodd" d="M40.906 33.7436C39.2472 36.1777 37.6267 38.7538 36.0683 41.4539C34.5099 44.154 33.0899 46.8459 31.812 49.4999C33.0899 52.154 34.5099 54.8459 36.0683 57.546C37.6267 60.2461 39.2472 62.8222 40.906 65.2563C43.8427 65.4762 46.8832 65.592 50 65.592C53.1168 65.592 56.1573 65.4762 59.094 65.2563C60.7528 62.8222 62.3733 60.2461 63.9317 57.546C65.4901 54.8459 66.9101 52.154 68.188 49.4999C66.9101 46.8459 65.4901 44.154 63.9317 41.4539C62.3733 38.7538 60.7528 36.1777 59.094 33.7436C56.1573 33.5237 53.1168 33.4079 50 33.4079C46.8832 33.4079 43.8427 33.5237 40.906 33.7436ZM35.3289 34.3001C34.2978 35.9125 33.2873 37.5738 32.303 39.2793C31.3186 40.9848 30.3855 42.6908 29.5052 44.3903C28.2684 41.4542 27.2169 38.5913 26.3561 35.8448C29.1643 35.2173 32.1686 34.6967 35.3289 34.3001ZM44.1762 29.1904C46.0878 29.1033 48.0313 29.0587 50 29.0587C51.9687 29.0587 53.9122 29.1033 55.8237 29.1904C53.9002 26.651 51.9474 24.3086 50 22.1897C48.0526 24.3086 46.0998 26.651 44.1762 29.1904ZM46.9667 19.0645C44.1037 22.1622 41.2523 25.6939 38.5031 29.5805C33.7637 30.0188 29.2805 30.7231 25.1672 31.6545C24.6985 29.8005 24.3271 28.0164 24.055 26.3175C23.3468 21.8956 23.3302 18.1688 23.9363 15.334C24.5425 12.4989 25.7087 10.7976 27.1739 9.9514C28.6391 9.1052 30.6951 8.94559 33.4527 9.83798C36.21 10.7303 39.4282 12.6081 42.9023 15.4325C44.237 16.5177 45.596 17.7315 46.9667 19.0645ZM53.0333 19.0645C55.8963 22.1622 58.7477 25.6939 61.4969 29.5805C66.2363 30.0188 70.7195 30.7231 74.8328 31.6545C75.3015 29.8005 75.6729 28.0164 75.945 26.3175C76.6532 21.8956 76.6698 18.1688 76.0637 15.334C75.4575 12.4989 74.2913 10.7976 72.8261 9.9514C71.3609 9.1052 69.3049 8.94559 66.5473 9.83797C63.79 10.7303 60.5718 12.6081 57.0977 15.4325C55.7629 16.5177 54.404 17.7315 53.0333 19.0645ZM79.0471 32.7243C79.5468 30.7479 79.9448 28.8364 80.2381 27.0055C80.9954 22.2768 81.0731 17.9681 80.3153 14.4243C79.5577 10.8809 77.9018 7.86077 75 6.18487C72.0982 4.50897 68.6556 4.58457 65.209 5.69991C61.7622 6.81535 58.0707 9.037 54.3555 12.0574C52.9171 13.2269 51.4612 14.5275 50 15.9486C48.5388 14.5275 47.0829 13.2269 45.6445 12.0574C41.9293 9.03701 38.2378 6.81536 34.791 5.69992C31.3444 4.58457 27.9018 4.50898 25 6.18488C22.0982 7.86078 20.4423 10.8809 19.6847 14.4243C18.9269 17.9681 19.0046 22.2768 19.7619 27.0055C20.0552 28.8364 20.4532 30.7479 20.9529 32.7243C18.992 33.2795 17.1381 33.8905 15.4064 34.5519C10.9339 36.2601 7.16475 38.3472 4.47563 40.7755C1.78675 43.2036 0 46.1481 0 49.4999C0 52.8517 1.78675 55.7963 4.47563 58.2243C7.16475 60.6526 10.9339 62.7398 15.4064 64.448C17.1381 65.1094 18.992 65.7203 20.9529 66.2756C20.4532 68.252 20.0552 70.1635 19.7619 71.9944C19.0046 76.7231 18.9269 81.0318 19.6847 84.5756C20.4423 88.119 22.0982 91.1391 25 92.815C27.9018 94.4909 31.3444 94.4153 34.791 93.3C38.2378 92.1845 41.9293 89.9629 45.6445 86.9424C47.0829 85.773 48.5388 84.4724 50 83.0513C51.4612 84.4724 52.9171 85.773 54.3555 86.9424C58.0707 89.9629 61.7622 92.1845 65.209 93.3C68.6556 94.4153 72.0982 94.4909 75 92.815C77.9018 91.1391 79.5577 88.119 80.3153 84.5756C81.0731 81.0318 80.9954 76.7231 80.2381 71.9944C79.9448 70.1635 79.5468 68.252 79.0471 66.2756C81.008 65.7203 82.8619 65.1094 84.5936 64.448C89.0661 62.7398 92.8353 60.6526 95.5244 58.2243C98.2133 55.7963 100 52.8517 100 49.4999C100 46.1481 98.2133 43.2036 95.5244 40.7755C92.8353 38.3472 89.0661 36.2601 84.5936 34.5519C82.8619 33.8905 81.008 33.2795 79.0471 32.7243ZM73.6439 35.8448C70.8357 35.2173 67.8314 34.6967 64.6711 34.3001C65.7022 35.9125 66.7127 37.5738 67.697 39.2793C68.6814 40.9848 69.6145 42.6908 70.4948 44.3903C71.7316 41.4542 72.7831 38.5913 73.6439 35.8448ZM72.9937 49.4999C74.9839 45.175 76.6158 40.939 77.8661 36.91C79.7056 37.4309 81.4358 38.0013 83.0427 38.615C87.225 40.2124 90.4598 42.0614 92.611 44.0039C94.7624 45.9466 95.6522 47.8075 95.6522 49.4999C95.6522 51.1923 94.7624 53.0533 92.611 54.996C90.4598 56.9385 87.225 58.7875 83.0427 60.3849C81.4358 60.9986 79.7056 61.569 77.8661 62.0899C76.6158 58.0608 74.9839 53.8249 72.9937 49.4999ZM70.4948 54.6096C69.6145 56.3091 68.6814 58.0151 67.697 59.7206C66.7127 61.4261 65.7022 63.0874 64.6711 64.6998C67.8314 64.3032 70.8357 63.7826 73.6439 63.1551C72.7831 60.4086 71.7316 57.5457 70.4948 54.6096ZM74.8328 67.3454C70.7195 68.2768 66.2363 68.9811 61.4969 69.4194C58.7477 73.306 55.8963 76.8377 53.0333 79.9354C54.404 81.2684 55.7629 82.4822 57.0977 83.5674C60.5718 86.3918 63.79 88.2696 66.5473 89.1619C69.3049 90.0543 71.3609 89.8947 72.8261 89.0485C74.2913 88.2023 75.4575 86.501 76.0637 83.6659C76.6698 80.8311 76.6532 77.1042 75.945 72.6824C75.6729 70.9835 75.3015 69.1994 74.8328 67.3454ZM50 76.8102C51.9474 74.6913 53.9002 72.3489 55.8237 69.8094C53.9122 69.8965 51.9687 69.9412 50 69.9412C48.0313 69.9412 46.0878 69.8965 44.1763 69.8094C46.0998 72.3489 48.0526 74.6913 50 76.8102ZM35.3289 64.6998C34.2978 63.0874 33.2873 61.4261 32.303 59.7206C31.3186 58.0151 30.3855 56.3091 29.5052 54.6096C28.2684 57.5457 27.2169 60.4086 26.3561 63.1551C29.1643 63.7826 32.1686 64.3032 35.3289 64.6998ZM25.1672 67.3454C29.2805 68.2768 33.7637 68.9811 38.5031 69.4194C41.2523 73.306 44.1037 76.8377 46.9667 79.9354C45.596 81.2684 44.237 82.4822 42.9023 83.5674C39.4282 86.3918 36.21 88.2696 33.4527 89.1619C30.6951 90.0543 28.6391 89.8947 27.1739 89.0485C25.7087 88.2023 24.5425 86.501 23.9363 83.6659C23.3302 80.8311 23.3468 77.1042 24.055 72.6824C24.3271 70.9835 24.6985 69.1994 25.1672 67.3454ZM22.1338 62.0899C20.2944 61.569 18.5642 60.9986 16.9573 60.3849C12.775 58.7875 9.54016 56.9385 7.38902 54.996C5.23764 53.0533 4.34783 51.1923 4.34783 49.4999C4.34783 47.8075 5.23764 45.9466 7.38902 44.0039C9.54016 42.0614 12.775 40.2124 16.9573 38.615C18.5642 38.0013 20.2944 37.4309 22.1338 36.91C23.3842 40.939 25.0161 45.175 27.0063 49.4999C25.0161 53.8249 23.3842 58.0608 22.1338 62.0899ZM50 42.7587C46.2781 42.7587 43.2609 45.7768 43.2609 49.4999C43.2609 53.223 46.2781 56.2412 50 56.2412C53.7219 56.2412 56.7391 53.223 56.7391 49.4999C56.7391 45.7768 53.7219 42.7587 50 42.7587ZM38.913 49.4999C38.913 43.3748 43.8768 38.4095 50 38.4095C56.1232 38.4095 61.087 43.3748 61.087 49.4999C61.087 55.625 56.1232 60.5904 50 60.5904C43.8768 60.5904 38.913 55.625 38.913 49.4999Z" fill="#61DAFB"></path>
  </symbol>
  <symbol fill="none" xmlns="http://www.w3.org/2000/svg" viewBox="0 0 100 100" id="send">
    <path d="M99.7172 7.96772C101.222 3.55693 96.443 -1.22162 92.0323 0.282842L3.17967 30.5894C-0.435434 31.8224 -1.11214 36.55 1.89589 39.558L21.6291 59.2912C22.6248 60.2869 24.1999 60.4024 25.3302 59.5626L84.1101 15.8899L40.4374 74.6698C39.5976 75.8001 39.7131 77.3752 40.7088 78.3709L60.442 98.1041C63.45 101.112 68.1776 100.435 69.4106 96.8203L99.7172 7.96772Z" fill="black"></path>
  </symbol>
  <symbol fill="none" xmlns="http://www.w3.org/2000/svg" viewBox="0 0 100 100" id="storybook">
    <path d="M13.0928 92.15L10.0032 9.60018C9.95657 8.28907 10.4223 7.01156 11.3012 6.04013C12.18 5.06869 13.4023 4.48021 14.7074 4.40019L84.6729 0.0101999C85.3565 -0.0335677 86.0417 0.0638312 86.6863 0.296374C87.3309 0.528917 87.9211 0.89166 88.4204 1.36217C88.9197 1.83269 89.3175 2.40097 89.5892 3.03187C89.8609 3.66278 90.0007 4.34291 90 5.03019V94.975C89.9993 95.654 89.8616 96.326 89.5952 96.9502C89.3288 97.5744 88.9391 98.1381 88.4497 98.6071C87.9603 99.0762 87.3813 99.441 86.7476 99.6795C86.114 99.918 85.4387 100.025 84.7626 99.995L17.8768 96.98C16.6203 96.9232 15.4309 96.3945 14.5447 95.4989C13.6586 94.6033 13.1403 93.4111 13.0928 92.15Z" fill="#FF4785"></path>
    <path fill-rule="evenodd" clip-rule="evenodd" d="M79.173 0.354003L69.5452 0.954002L69.0768 12.289C69.0711 12.4308 69.1056 12.5713 69.1763 12.6943C69.247 12.8172 69.351 12.9175 69.4762 12.9835C69.6015 13.0495 69.7428 13.0784 69.8838 13.067C70.0248 13.0556 70.1597 13.0043 70.2728 12.919L74.6581 9.57898L78.3657 12.509C78.4776 12.5979 78.6126 12.6527 78.7546 12.6671C78.8966 12.6815 79.0398 12.6548 79.1672 12.5901C79.2945 12.5254 79.4008 12.4254 79.4734 12.3021C79.5459 12.1787 79.5817 12.0371 79.5766 11.894L79.173 0.354003ZM71.6781 38.3039C69.919 39.6789 56.783 40.6139 56.783 38.6589C57.0621 31.1939 53.7333 30.8689 51.8795 30.8689C50.1253 30.8689 47.1653 31.3989 47.1653 35.3989C47.1653 39.4739 51.4908 41.7739 56.5687 44.4739C63.7796 48.3089 72.5153 52.9539 72.5153 64.6339C72.5153 75.8338 63.4457 82.0138 51.8845 82.0138C39.9495 82.0138 29.5194 77.1688 30.6955 60.3739C31.1589 58.4039 46.3331 58.8739 46.3331 60.3739C46.1437 67.3038 47.7184 69.3438 51.6951 69.3438C54.7498 69.3438 56.1352 67.6538 56.1352 64.8139C56.1352 60.5089 51.6303 57.9689 46.4427 55.0489C39.4212 51.0939 31.1589 46.4389 31.1589 35.7539C31.1589 25.0939 38.4644 17.984 51.5107 17.984C64.557 17.984 71.6781 24.9839 71.6781 38.3039Z" fill="white"></path>
  </symbol>
  <symbol fill="none" xmlns="http://www.w3.org/2000/svg" viewBox="0 0 100 100" id="sun">
    <path fill-rule="evenodd" clip-rule="evenodd" d="M50 64C57.732 64 64 57.732 64 50C64 42.268 57.732 36 50 36C42.268 36 36 42.268 36 50C36 57.732 42.268 64 50 64ZM50 75C63.8071 75 75 63.8071 75 50C75 36.1929 63.8071 25 50 25C36.1929 25 25 36.1929 25 50C25 63.8071 36.1929 75 50 75Z" fill="black"></path>
    <path d="M56 8.5C56 11.5376 53.5376 14 50.5 14C47.4624 14 45 11.5376 45 8.5V5.5C45 2.46243 47.4624 -2.65552e-07 50.5 0C53.5376 2.65552e-07 56 2.46243 56 5.5V8.5Z" fill="black"></path>
    <path d="M5.5 56C2.46243 56 -3.98329e-07 53.5376 0 50.5C3.98329e-07 47.4624 2.46243 45 5.5 45H8.5C11.5376 45 14 47.4624 14 50.5C14 53.5376 11.5376 56 8.5 56H5.5Z" fill="black"></path>
    <path d="M56 94.5C56 97.5376 53.5376 100 50.5 100C47.4624 100 45 97.5376 45 94.5V91.5C45 88.4624 47.4624 86 50.5 86C53.5376 86 56 88.4624 56 91.5V94.5Z" fill="black"></path>
    <path d="M91.5 56C88.4624 56 86 53.5376 86 50.5C86 47.4624 88.4624 45 91.5 45H94.5C97.5376 45 100 47.4624 100 50.5C100 53.5376 97.5376 56 94.5 56H91.5Z" fill="black"></path>
    <path d="M83.5876 24.8977C81.4397 27.0456 77.9573 27.0456 75.8094 24.8977C73.6615 22.7498 73.6615 19.2674 75.8094 17.1195L77.9307 14.9982C80.0786 12.8503 83.561 12.8503 85.7089 14.9982C87.8568 17.1461 87.8568 20.6285 85.7089 22.7764L83.5876 24.8977Z" fill="black"></path>
    <path d="M14.2911 22.7764C12.1432 20.6285 12.1432 17.1461 14.2911 14.9982C16.4389 12.8503 19.9214 12.8503 22.0692 14.9982L24.1906 17.1195C26.3384 19.2674 26.3384 22.7498 24.1906 24.8977C22.0427 27.0456 18.5603 27.0456 16.4124 24.8977L14.2911 22.7764Z" fill="black"></path>
    <path d="M22.7764 85.7089C20.6285 87.8568 17.1461 87.8568 14.9982 85.7089C12.8504 83.561 12.8504 80.0786 14.9982 77.9307L17.1196 75.8094C19.2674 73.6615 22.7499 73.6615 24.8977 75.8094C27.0456 77.9573 27.0456 81.4397 24.8977 83.5876L22.7764 85.7089Z" fill="black"></path>
    <path d="M75.1023 83.5876C72.9545 81.4397 72.9545 77.9573 75.1023 75.8094C77.2502 73.6615 80.7326 73.6615 82.8805 75.8094L85.0018 77.9307C87.1497 80.0786 87.1497 83.561 85.0018 85.7089C82.854 87.8568 79.3715 87.8568 77.2237 85.7089L75.1023 83.5876Z" fill="black"></path>
  </symbol>
  <symbol fill="none" xmlns="http://www.w3.org/2000/svg" viewBox="0 0 100 100" id="versett">
    <path d="M11.1239 23.1652L27.9266 62.2134L44.9656 23.1652H56.0894L31.4771 76.8854H24.367L0 23.1652H11.1239ZM68.156 23.1905L43.5986 76.8602H53.3532L77.9197 23.1905H68.156ZM90.0619 23.1905L65.5092 76.8602H75.2706L99.8257 23.1905H90.0619Z" fill="black"></path>
  </symbol>
  <symbol fill="none" xmlns="http://www.w3.org/2000/svg" viewBox="0 0 100 100" id="wordpress">
    <g clip-path="url(#clip0_324_1413)">
      <path d="M7.10741 49.9988C7.10741 66.9768 16.9744 81.6492 31.2822 88.6021L10.8211 32.5425C8.44107 37.877 7.10741 43.7803 7.10741 49.9988Z" fill="#464342"></path>
      <path d="M78.9585 47.8343C78.9585 42.5332 77.0544 38.8621 75.4212 36.0047C73.2468 32.4715 71.2088 29.4794 71.2088 25.9461C71.2088 22.0032 74.1993 18.3329 78.4117 18.3329C78.6019 18.3329 78.7822 18.3566 78.9675 18.3672C71.3361 11.3758 61.1688 7.10724 50.0016 7.10724C35.0163 7.10724 21.8324 14.7956 14.1626 26.4407C15.169 26.4709 16.1174 26.4922 16.923 26.4922C21.4096 26.4922 28.3546 25.9478 28.3546 25.9478C30.6668 25.8115 30.9394 29.2076 28.6296 29.481C28.6296 29.481 26.3059 29.7544 23.7202 29.8899L39.3405 76.3506L48.7276 48.1983L42.0446 29.8883C39.7347 29.7528 37.5465 29.4794 37.5465 29.4794C35.2351 29.3439 35.506 25.8098 37.8175 25.9461C37.8175 25.9461 44.9012 26.4905 49.1161 26.4905C53.6019 26.4905 60.5477 25.9461 60.5477 25.9461C62.8616 25.8098 63.1334 29.2059 60.8227 29.4794C60.8227 29.4794 58.4941 29.7528 55.9133 29.8883L71.4145 75.9971L75.6929 61.7002C77.5473 55.7675 78.9585 51.5062 78.9585 47.8343Z" fill="#464342"></path>
      <path d="M50.7542 53.7507L37.8844 91.147C41.7271 92.2765 45.7909 92.8944 50.0016 92.8944C54.9967 92.8944 59.787 92.0309 64.2458 90.463C64.1308 90.2794 64.0263 90.0843 63.9406 89.8721L50.7542 53.7507Z" fill="#464342"></path>
      <path d="M87.6396 29.4198C87.824 30.7861 87.9285 32.2527 87.9285 33.8304C87.9285 38.183 87.1156 43.076 84.667 49.194L71.5646 87.0751C84.3168 79.6389 92.8942 65.8236 92.8942 49.9996C92.895 42.5422 90.99 35.5297 87.6396 29.4198Z" fill="#464342"></path>
      <path d="M50.0016 0C22.4314 0 0 22.4293 0 49.9988C0 77.5716 22.4314 100 50.0016 100C77.571 100 100.006 77.5716 100.006 49.9988C100.005 22.4293 77.571 0 50.0016 0ZM50.0016 97.7082C23.6957 97.7082 2.29269 76.3057 2.29269 49.9988C2.29269 23.6935 23.6949 2.29263 50.0016 2.29263C76.3067 2.29263 97.7081 23.6935 97.7081 49.9988C97.7081 76.3057 76.3067 97.7082 50.0016 97.7082Z" fill="#464342"></path>
    </g>
    <defs>
      <clipPath id="clip0_324_1413">
        <rect width="100" height="100" fill="white"></rect>
      </clipPath>
    </defs>
  </symbol>
</svg>